<?xml version="1.0" encoding="UTF-8" standalone="no"?>
<svg
   width="100"
   height="100"
   viewBox="0 0 100 100"
   version="1.1"
   id="svg38"
   sodipodi:docname="AC_Current_source.svg"
   inkscape:version="1.4.3 (0d15f75, 2025-12-25)"
   xmlns:inkscape="http://www.inkscape.org/namespaces/inkscape"
   xmlns:sodipodi="http://sodipodi.sourceforge.net/DTD/sodipodi-0.dtd"
   xmlns="http://www.w3.org/2000/svg"
   xmlns:svg="http://www.w3.org/2000/svg">
  <defs
     id="defs1">
    <clipPath
       clipPathUnits="userSpaceOnUse"
       id="clipPath1">
      <path
         d="m 46.703,43.9999 v 40 h 23 v -40 z"
         id="path1"
         style="stroke-width:1" />
    </clipPath>
    <clipPath
       clipPathUnits="userSpaceOnUse"
       id="clipPath2">
      <path
         d="m 46.703,43.9999 v 40 h 23 v -40 z"
         id="path3"
         style="stroke-width:1" />
    </clipPath>
    <clipPath
       clipPathUnits="userSpaceOnUse"
       id="clipPath3">
      <path
         d="m 46.703,43.9999 v 40 h 23 v -40 z"
         id="path5"
         style="stroke-width:1" />
    </clipPath>
    <clipPath
       clipPathUnits="userSpaceOnUse"
       id="clipPath5">
      <path
         d="m 46.703,43.9999 v 40 h 23 v -40 z"
         id="path7"
         style="stroke-width:1" />
    </clipPath>
    <clipPath
       clipPathUnits="userSpaceOnUse"
       id="clipPath7">
      <path
         d="m 46.703,43.9999 v 40 h 23 v -40 z"
         id="path12"
         style="stroke-width:1" />
    </clipPath>
    <clipPath
       clipPathUnits="userSpaceOnUse"
       id="clipPath12">
      <path
         d="m 46.703,43.9999 v 40 h 23 v -40 z"
         id="path14"
         style="stroke-width:1" />
    </clipPath>
  </defs>
  <sodipodi:namedview
     id="namedview38"
     pagecolor="#ffffff"
     bordercolor="#000000"
     borderopacity="0.25"
     inkscape:showpageshadow="2"
     inkscape:pageopacity="0.0"
     inkscape:pagecheckerboard="0"
     inkscape:deskcolor="#d1d1d1"
     inkscape:document-units="mm"
     showgrid="false"
     inkscape:zoom="6.3062467"
     inkscape:cx="51.060483"
     inkscape:cy="74.132844"
     inkscape:window-width="1918"
     inkscape:window-height="1340"
     inkscape:window-x="2817"
     inkscape:window-y="710"
     inkscape:window-maximized="0"
     inkscape:current-layer="svg38">
    <inkscape:page
       x="0"
       y="0"
       width="100"
       height="100"
       id="page2"
       margin="0"
       bleed="0" />
  </sodipodi:namedview>
  <g
     id="g14"
     transform="matrix(2.5322736,0,0,2.5322736,15.712382,-1.2782922)">
    <path
       d="m 57.5126,73.9654 c 5.5863,0 10.1149,-4.4616 10.1149,-9.9654 0,-5.5038 -4.5286,-9.9654 -10.1149,-9.9654 -5.58628,0 -10.11488,4.4616 -10.11488,9.9654 0,5.5038 4.5286,9.9654 10.11488,9.9654 z"
       fill-rule="nonzero"
       vector-effect="none"
       id="path9"
       style="fill:none;stroke:#3369c9;stroke-width:1.5;stroke-linecap:butt;stroke-linejoin:miter;stroke-miterlimit:4;stroke-opacity:1"
       clip-path="url(#clipPath7)"
       transform="translate(-44,-43.999998)" />
    <path
       d="m 58.203,74.4999 v 10"
       fill-rule="nonzero"
       vector-effect="none"
       id="path11"
       style="fill:none;stroke:#3369c9;stroke-width:1.5;stroke-linecap:butt;stroke-linejoin:miter;stroke-miterlimit:20;stroke-opacity:1"
       clip-path="url(#clipPath12)"
       transform="translate(-44,-43.999998)" />
    <path
       d="m 58.203,53.4999 v -9"
       fill-rule="nonzero"
       vector-effect="none"
       id="path13"
       style="fill:none;stroke:#3369c9;stroke-width:1.5;stroke-linecap:butt;stroke-linejoin:miter;stroke-miterlimit:20;stroke-opacity:1"
       clip-path="url(#clipPath5)"
       transform="translate(-44,-43.999998)" />
    <path
       d="M 61.7631,70.2222 V 57.573"
       fill-rule="nonzero"
       vector-effect="none"
       id="path15"
       style="fill:none;stroke:#3369c9;stroke-width:1.5;stroke-linecap:butt;stroke-linejoin:miter;stroke-miterlimit:20;stroke-opacity:1"
       clip-path="url(#clipPath3)"
       transform="translate(-44,-43.999998)" />
    <path
       d="m 60.485,60.0174 1.2781,-2.5184 1.2781,2.5184"
       fill-rule="nonzero"
       vector-effect="none"
       id="path17"
       style="fill:none;stroke:#3369c9;stroke-width:1.5;stroke-linecap:butt;stroke-linejoin:miter;stroke-miterlimit:20;stroke-opacity:1"
       clip-path="url(#clipPath1)"
       transform="translate(-44,-43.999998)" />
    <path
       d="m 50.57554,63.6049 c 0,0 2.2e-4,4e-4 0.0038,0.005 0.0035,0.0044 0.01029,0.0133 0.02112,0.0273 0.01082,0.0142 0.02568,0.0334 0.0438,0.0568 0.01813,0.0235 0.03948,0.0512 0.06244,0.0806 0.02296,0.0297 0.04748,0.0611 0.07178,0.0922 0.02431,0.031 0.04833,0.0614 0.07082,0.0897 0.02249,0.0282 0.04339,0.054 0.06266,0.0774 0.01926,0.0234 0.03684,0.0443 0.0546,0.0649 0.01776,0.0205 0.03589,0.0411 0.0543,0.0615 0.01843,0.0204 0.03712,0.0409 0.05599,0.0609 0.01886,0.0203 0.03787,0.0404 0.05695,0.0604 0.0191,0.02 0.03826,0.0399 0.05748,0.06 0.01921,0.02 0.03848,0.04 0.05781,0.0602 0.01934,0.0203 0.03876,0.0405 0.05832,0.0612 0.01957,0.0208 0.0393,0.0417 0.0593,0.0633 0.02002,0.0215 0.0403,0.0437 0.06098,0.0663 0.02067,0.0225 0.04177,0.0459 0.06356,0.07 0.0218,0.0241 0.04426,0.0492 0.06725,0.075 0.02299,0.0257 0.04651,0.0522 0.07025,0.079 0.02376,0.0269 0.04776,0.0539 0.0717,0.0808 0.02394,0.0272 0.04782,0.0542 0.07126,0.0805 0.02346,0.0264 0.04648,0.0524 0.06862,0.0771 0.02212,0.0247 0.04335,0.0482 0.06322,0.0701 0.01986,0.0217 0.03833,0.0418 0.05545,0.0601 0.01713,0.0183 0.03292,0.0349 0.04737,0.0499 0.01443,0.0149 0.02757,0.0284 0.03985,0.0408 0.01226,0.0125 0.02369,0.0239 0.03472,0.0347 0.01102,0.011 0.02165,0.0214 0.03219,0.0318 0.01054,0.0104 0.02102,0.0206 0.03166,0.0309 0.01066,0.0102 0.02149,0.0208 0.0327,0.0315 0.01121,0.0107 0.02282,0.0217 0.03489,0.0329 0.01206,0.0112 0.02459,0.0225 0.03734,0.0339 0.01275,0.0114 0.02563,0.0226 0.03859,0.0336 0.01295,0.011 0.02597,0.0222 0.03898,0.0332 0.01302,0.0111 0.02605,0.0221 0.03908,0.0331 0.01303,0.0111 0.02607,0.0221 0.03915,0.0331 0.01308,0.0109 0.0262,0.0219 0.03941,0.0328 0.01323,0.0107 0.02658,0.0215 0.04015,0.0319 0.01358,0.0105 0.02739,0.0207 0.04159,0.0306 0.0142,0.0099 0.0288,0.0194 0.04384,0.0285 0.01503,0.009 0.03052,0.0178 0.0465,0.0265 0.01597,0.0087 0.03243,0.0174 0.04918,0.0265 0.01678,0.0091 0.03387,0.0181 0.05116,0.0275 0.0172,0.0092 0.0346,0.0186 0.052,0.0276 0.0174,0.0093 0.0348,0.0183 0.0521,0.0267 0.0173,0.0086 0.0345,0.0163 0.0515,0.0231 0.017,0.0065 0.0337,0.012 0.0501,0.0154 0.0165,0.0036 0.0326,0.0051 0.0484,0.0045 0.0159,-7e-4 0.0316,-0.0033 0.047,-0.0081 0.0154,-0.0046 0.0306,-0.0112 0.0456,-0.0188 0.0151,-0.0077 0.03,-0.0166 0.0448,-0.026 0.0148,-0.0094 0.0296,-0.0192 0.0443,-0.0294 0.0148,-0.0102 0.0295,-0.0204 0.0443,-0.0308 0.0148,-0.0102 0.0296,-0.0206 0.0445,-0.031 0.0149,-0.0102 0.0299,-0.0204 0.0449,-0.0309 0.0151,-0.0104 0.0303,-0.0211 0.0455,-0.0324 0.0153,-0.0114 0.0306,-0.0234 0.0459,-0.0361 0.0154,-0.0127 0.0309,-0.0262 0.0463,-0.0398 0.0155,-0.0138 0.0311,-0.0282 0.0466,-0.0425 0.0155,-0.0145 0.0311,-0.0291 0.0467,-0.0438 0.0156,-0.0146 0.0311,-0.0294 0.0467,-0.0441 0.0155,-0.0146 0.0311,-0.0293 0.0465,-0.0438 0.0155,-0.0145 0.031,-0.0288 0.0463,-0.0431 0.0154,-0.0143 0.0307,-0.0285 0.0459,-0.0426 0.0153,-0.0142 0.0305,-0.0285 0.0454,-0.0425 0.015,-0.014 0.0297,-0.0277 0.0443,-0.0412 0.0146,-0.0135 0.029,-0.0268 0.0433,-0.04 0.0144,-0.0131 0.0286,-0.0261 0.0429,-0.0393 0.0143,-0.0132 0.0286,-0.0263 0.0431,-0.04 0.0145,-0.0135 0.0293,-0.0275 0.0444,-0.0421 0.0151,-0.0149 0.0307,-0.0303 0.0469,-0.047 0.0162,-0.0166 0.0331,-0.0345 0.0506,-0.0536 0.0176,-0.0191 0.0358,-0.0395 0.0543,-0.0609 0.0185,-0.0214 0.0375,-0.0436 0.0565,-0.0667 0.0191,-0.0229 0.0383,-0.0462 0.0575,-0.0701 0.0193,-0.0237 0.0387,-0.0477 0.0581,-0.0718 0.0195,-0.0242 0.0391,-0.0485 0.059,-0.0729 0.0199,-0.0245 0.04,-0.0492 0.0608,-0.0741 0.0208,-0.025 0.0421,-0.0503 0.0645,-0.0762 0.0224,-0.026 0.0459,-0.0525 0.0705,-0.0802 0.0247,-0.0276 0.0505,-0.0561 0.0775,-0.0854 0.027,-0.0293 0.0551,-0.0594 0.0839,-0.0899 0.0288,-0.0304 0.0582,-0.0614 0.0881,-0.0925 0.0298,-0.0311 0.0599,-0.0624 0.0901,-0.094 0.0302,-0.0314 0.0606,-0.0628 0.0908,-0.0946 0.0303,-0.0318 0.0606,-0.0636 0.0907,-0.0957 0.0302,-0.0321 0.0602,-0.0645 0.0903,-0.0976 0.03,-0.0329 0.0601,-0.0665 0.0904,-0.1009 0.0302,-0.0344 0.0608,-0.0696 0.0922,-0.1061 0.0313,-0.0366 0.0634,-0.0744 0.096,-0.1133 0.0326,-0.0388 0.0658,-0.0787 0.0993,-0.119 0.0335,-0.0403 0.0673,-0.081 0.1009,-0.1217 0.0337,-0.0406 0.0672,-0.0811 0.1002,-0.1209 0.0329,-0.0399 0.0652,-0.0791 0.0964,-0.1166 0.0311,-0.0375 0.0609,-0.0736 0.0889,-0.1071 0.0279,-0.0338 0.0539,-0.0651 0.0779,-0.094 0.024,-0.029 0.0461,-0.0558 0.0663,-0.0805 0.0202,-0.0247 0.0386,-0.0473 0.0558,-0.0687 0.0171,-0.0212 0.0332,-0.0413 0.0487,-0.0607 0.0154,-0.0194 0.0304,-0.0382 0.0452,-0.0568 0.0147,-0.0186 0.0294,-0.037 0.0442,-0.0556 0.0148,-0.0186 0.0298,-0.0372 0.0451,-0.0562 0.0154,-0.0189 0.031,-0.0382 0.047,-0.0574 0.016,-0.0194 0.0324,-0.0389 0.0487,-0.058 0.0163,-0.0191 0.0325,-0.0378 0.0485,-0.0563 0.0161,-0.0186 0.032,-0.0367 0.0479,-0.0548 0.0158,-0.0181 0.0316,-0.0359 0.0473,-0.0536 0.0158,-0.018 0.0315,-0.0356 0.0472,-0.0534 0.0157,-0.0176 0.0314,-0.0354 0.0471,-0.0528 0.0157,-0.0176 0.0315,-0.0352 0.0473,-0.0525 0.0158,-0.0173 0.0316,-0.0346 0.0476,-0.0514 0.0159,-0.0169 0.0319,-0.0336 0.048,-0.0499 0.0161,-0.0163 0.0323,-0.0321 0.0486,-0.0477 0.0163,-0.0156 0.0328,-0.0311 0.0494,-0.0464 0.0166,-0.0153 0.0334,-0.0306 0.0502,-0.0458 0.0169,-0.0151 0.0338,-0.0303 0.0507,-0.0452 0.0168,-0.015 0.0337,-0.03 0.0504,-0.045 0.0167,-0.0148 0.0332,-0.0294 0.0494,-0.0439 0.0162,-0.0144 0.0321,-0.0285 0.0475,-0.0422 0.0155,-0.0136 0.0304,-0.0268 0.0448,-0.0393 0.0144,-0.0125 0.0283,-0.0245 0.0418,-0.0362 0.0134,-0.0117 0.0265,-0.0232 0.0392,-0.0346 0.0128,-0.0114 0.0253,-0.0227 0.0376,-0.0339 0.0124,-0.0114 0.0246,-0.0226 0.0368,-0.0336 0.0122,-0.011 0.0243,-0.022 0.0364,-0.0326 0.0122,-0.0107 0.0243,-0.021 0.0365,-0.0306 0.0121,-0.0095 0.0243,-0.0184 0.0364,-0.0262 0.0121,-0.0075 0.0241,-0.0141 0.036,-0.0192 0.0119,-0.0051 0.0237,-0.0089 0.035,-0.0117 0.0113,-0.0028 0.0222,-0.0046 0.0328,-0.0058 0.0106,-0.0011 0.0209,-0.0016 0.0311,-0.002 0.0101,-3e-4 0.0201,-4e-4 0.0302,-3e-4 0.0101,2e-4 0.0202,3e-4 0.0306,10e-4 0.0104,5e-4 0.0211,0.0012 0.0325,0.0025 0.0114,0.0011 0.0234,0.0028 0.0364,0.0054 0.013,0.0026 0.0271,0.0061 0.0421,0.0109 0.015,0.0047 0.0311,0.0107 0.0484,0.0179 0.0172,0.0073 0.0357,0.0157 0.055,0.025 0.0193,0.0093 0.0394,0.0193 0.0599,0.0297 0.0205,0.0103 0.0414,0.021 0.0623,0.0319 0.0208,0.0109 0.0417,0.0217 0.0622,0.0326 0.0205,0.0107 0.0406,0.0214 0.0599,0.0316 0.0193,0.0104 0.0378,0.0204 0.055,0.0301 0.0173,0.0097 0.0334,0.0191 0.0484,0.0283 0.015,0.0093 0.0291,0.0185 0.042,0.0275 0.013,0.0092 0.0249,0.0181 0.0361,0.027 0.0112,0.0091 0.0218,0.0178 0.0319,0.0267 0.0102,0.0087 0.0201,0.0174 0.0299,0.0262 0.0099,0.0088 0.0197,0.0176 0.0296,0.0265 0.0101,0.0088 0.0203,0.0177 0.0309,0.0268 0.0107,0.009 0.0218,0.0183 0.0335,0.0276 0.0117,0.0094 0.024,0.0191 0.0368,0.029 0.0127,0.0099 0.0258,0.0199 0.0393,0.0301 0.0134,0.0101 0.0272,0.0203 0.0412,0.0303 0.0139,0.0102 0.0281,0.0203 0.0423,0.0303 0.0143,0.0101 0.0286,0.0201 0.043,0.0303 0.0144,0.0102 0.0288,0.0203 0.0432,0.0308 0.0145,0.0104 0.0289,0.0209 0.0435,0.0319 0.0145,0.0111 0.0291,0.0224 0.0438,0.0346 0.0147,0.0122 0.0295,0.0248 0.0445,0.0385 0.0151,0.0135 0.0303,0.028 0.0458,0.043 0.0155,0.0151 0.0312,0.0311 0.0471,0.0474 0.0159,0.0163 0.0319,0.0331 0.0479,0.0502 0.0161,0.0169 0.0323,0.0342 0.0484,0.0515 0.0162,0.0175 0.0324,0.0347 0.0485,0.052 0.0161,0.0173 0.0322,0.0344 0.0483,0.0515 0.016,0.017 0.0319,0.0338 0.0477,0.0503 0.0159,0.0166 0.0316,0.0329 0.0473,0.0492 0.0156,0.0163 0.0312,0.0324 0.0468,0.0485 0.0155,0.0162 0.0309,0.0323 0.0463,0.0483 0.0154,0.0159 0.0307,0.0321 0.046,0.0479 0.0153,0.0159 0.0306,0.0319 0.0459,0.0479 0.0153,0.0159 0.0305,0.0319 0.0459,0.0479 0.0153,0.0158 0.0307,0.0319 0.0461,0.0479 0.0155,0.0159 0.0309,0.0321 0.0466,0.0482 0.0157,0.0161 0.0314,0.0323 0.0473,0.0486 0.0158,0.0163 0.0319,0.0325 0.0481,0.0488 0.016,0.0163 0.0324,0.0328 0.0489,0.0493 0.0166,0.0163 0.0331,0.0327 0.0498,0.0492 0.0167,0.0164 0.0336,0.0329 0.0503,0.0494 0.0167,0.0164 0.0334,0.0329 0.0501,0.0493 0.0168,0.0165 0.0331,0.033 0.0495,0.0496 0.0164,0.0165 0.0324,0.0329 0.0481,0.0495 0.0157,0.0167 0.0311,0.0333 0.0461,0.0499 0.0151,0.0166 0.0298,0.0334 0.0446,0.0509 0.0149,0.0174 0.0298,0.0354 0.0448,0.054 0.0151,0.0184 0.0303,0.0375 0.0456,0.0569 0.0152,0.0193 0.0306,0.0389 0.046,0.0583 0.0152,0.0196 0.0302,0.0388 0.0449,0.0574 0.0146,0.0186 0.0288,0.0364 0.042,0.0529 0.0132,0.0164 0.0254,0.0313 0.036,0.0439 0.0106,0.0125 0.0196,0.0228 0.0269,0.0307 0.0074,0.0077 0.0131,0.0133 0.0173,0.0166 0.0043,0.0033 0.0071,0.0043 0.009,0.0034 0.0018,-6e-4 0.0027,-0.0031 0.0027,-0.0065 10e-5,-0.0035 -4e-4,-0.0079 -0.0012,-0.0126 -9e-4,-0.0046 -0.002,-0.0093 -0.003,-0.0136 -0.001,-0.0041 -0.002,-0.0079 -0.0029,-0.0106 -6e-4,-0.0028 -0.0013,-0.0044 -0.0015,-0.0054 -3e-4,-10e-4 -3e-4,-10e-4 -3e-4,-10e-4"
       fill-rule="nonzero"
       vector-effect="none"
       id="path19"
       style="fill:none;stroke:#3369c9;stroke-width:1.5;stroke-linecap:butt;stroke-linejoin:miter;stroke-miterlimit:20;stroke-opacity:1"
       clip-path="url(#clipPath2)"
       transform="translate(-44,-43.999998)" />
  </g>
  <!--generated on windows @ 2026-04-07 21:41:17 Mitteleuropäische Sommerzeit-->
</svg>
