<?xml version="1.0" encoding="UTF-8" standalone="no"?>
<svg
   width="100"
   height="100"
   viewBox="0 0 100 100"
   version="1.1"
   id="svg40"
   sodipodi:docname="AC_Voltage_source.svg"
   inkscape:version="1.4.3 (0d15f75, 2025-12-25)"
   xmlns:inkscape="http://www.inkscape.org/namespaces/inkscape"
   xmlns:sodipodi="http://sodipodi.sourceforge.net/DTD/sodipodi-0.dtd"
   xmlns="http://www.w3.org/2000/svg"
   xmlns:svg="http://www.w3.org/2000/svg">
  <defs
     id="defs1">
    <clipPath
       clipPathUnits="userSpaceOnUse"
       id="clipPath1">
      <path
         d="m 46.703,43.9999 v 40 h 23 v -40 z"
         id="path1" />
    </clipPath>
    <clipPath
       clipPathUnits="userSpaceOnUse"
       id="clipPath2">
      <path
         d="m 46.703,43.9999 v 40 h 23 v -40 z"
         id="path3" />
    </clipPath>
    <clipPath
       clipPathUnits="userSpaceOnUse"
       id="clipPath3">
      <path
         d="m 46.703,43.9999 v 40 h 23 v -40 z"
         id="path5" />
    </clipPath>
    <clipPath
       clipPathUnits="userSpaceOnUse"
       id="clipPath5">
      <path
         d="m 46.703,43.9999 v 40 h 23 v -40 z"
         id="path7" />
    </clipPath>
    <clipPath
       clipPathUnits="userSpaceOnUse"
       id="clipPath7">
      <path
         d="m 46.703,43.9999 v 40 h 23 v -40 z"
         id="path12" />
    </clipPath>
    <clipPath
       clipPathUnits="userSpaceOnUse"
       id="clipPath12">
      <path
         d="m 46.703,43.9999 v 40 h 23 v -40 z"
         id="path16" />
    </clipPath>
    <clipPath
       clipPathUnits="userSpaceOnUse"
       id="clipPath16">
      <path
         d="m 46.703,43.9999 v 40 h 23 v -40 z"
         id="path18" />
    </clipPath>
  </defs>
  <sodipodi:namedview
     id="namedview40"
     pagecolor="#ffffff"
     bordercolor="#000000"
     borderopacity="0.25"
     inkscape:showpageshadow="2"
     inkscape:pageopacity="0.0"
     inkscape:pagecheckerboard="0"
     inkscape:deskcolor="#d1d1d1"
     inkscape:document-units="mm"
     showgrid="false"
     inkscape:zoom="6.3062467"
     inkscape:cx="44.241847"
     inkscape:cy="62.715593"
     inkscape:window-width="1754"
     inkscape:window-height="1428"
     inkscape:window-x="2926"
     inkscape:window-y="670"
     inkscape:window-maximized="0"
     inkscape:current-layer="svg40" />
  <g
     id="g18"
     transform="matrix(2.5316456,0,0,2.5316456,-76.170002,-60.337217)">
    <path
       d="m 57.5126,73.9654 c 5.5863,0 10.1149,-4.4616 10.1149,-9.9654 0,-5.5038 -4.5286,-9.9654 -10.1149,-9.9654 -5.58628,0 -10.11488,4.4616 -10.11488,9.9654 0,5.5038 4.5286,9.9654 10.11488,9.9654 z"
       fill-rule="nonzero"
       vector-effect="none"
       id="path9"
       style="fill:none;stroke:#3369c9;stroke-width:1.5;stroke-linecap:butt;stroke-linejoin:miter;stroke-miterlimit:4;stroke-opacity:1"
       clip-path="url(#clipPath7)"
       transform="translate(-7.7031,-20.6667)" />
    <path
       d="m 55.4475,57.7778 h 4.5112"
       fill-rule="nonzero"
       vector-effect="none"
       id="path11"
       style="fill:none;stroke:#3369c9;stroke-width:1.5;stroke-linecap:butt;stroke-linejoin:miter;stroke-miterlimit:20;stroke-opacity:1"
       clip-path="url(#clipPath12)"
       transform="translate(-7.7031,-20.6667)" />
    <path
       d="M 57.7031,55.5556 V 60"
       fill-rule="nonzero"
       vector-effect="none"
       id="path13"
       style="fill:none;stroke:#3369c9;stroke-width:1.5;stroke-linecap:butt;stroke-linejoin:miter;stroke-miterlimit:20;stroke-opacity:1"
       clip-path="url(#clipPath5)"
       transform="translate(-7.7031,-20.6667)" />
    <path
       d="m 58.203,74.4999 v 10"
       fill-rule="nonzero"
       vector-effect="none"
       id="path15"
       style="fill:none;stroke:#3369c9;stroke-width:1.5;stroke-linecap:butt;stroke-linejoin:miter;stroke-miterlimit:20;stroke-opacity:1"
       clip-path="url(#clipPath16)"
       transform="translate(-7.7031,-20.6667)" />
    <path
       d="m 58.203,53.4999 v -9"
       fill-rule="nonzero"
       vector-effect="none"
       id="path17"
       style="fill:none;stroke:#3369c9;stroke-width:1.5;stroke-linecap:butt;stroke-linejoin:miter;stroke-miterlimit:20;stroke-opacity:1"
       clip-path="url(#clipPath2)"
       transform="translate(-7.7031,-20.6667)" />
    <path
       d="m 55.4475,70.6667 h 4.5112"
       fill-rule="nonzero"
       vector-effect="none"
       id="path19"
       style="fill:none;stroke:#3369c9;stroke-width:1.5;stroke-linecap:butt;stroke-linejoin:miter;stroke-miterlimit:20;stroke-opacity:1"
       clip-path="url(#clipPath1)"
       transform="translate(-7.7031,-20.6667)" />
    <path
       d="m 64.4497,63.9506 c 0,0 -3e-4,-3e-4 -0.0053,-0.0067 -0.005,-0.0065 -0.0146,-0.0188 -0.0299,-0.0385 C 64.3991,63.8858 64.378,63.8588 64.3523,63.8258 64.3267,63.7931 64.2965,63.7544 64.2639,63.7129 64.2315,63.6716 64.1968,63.6275 64.1623,63.584 64.1281,63.5406 64.0942,63.4979 64.0624,63.4584 64.0309,63.4189 64.0014,63.3827 63.9745,63.35 63.9475,63.3172 63.9229,63.2881 63.8984,63.2593 63.8738,63.2305 63.8486,63.2016 63.8233,63.173 63.7979,63.1444 63.7724,63.1159 63.7465,63.0876 63.7208,63.0594 63.6949,63.0311 63.669,63.0031 63.6431,62.975 63.617,62.947 63.5909,62.919 63.5649,62.8909 63.5386,62.8627 63.5124,62.8344 63.486,62.8061 63.4596,62.7776 63.4329,62.7486 63.4061,62.7197 63.3791,62.6904 63.3513,62.6602 63.3238,62.6301 63.2955,62.5993 63.2668,62.5679 63.2379,62.5365 63.2085,62.5042 63.1778,62.4706 63.1472,62.4372 63.1154,62.4025 63.0829,62.3667 63.0503,62.3312 63.017,62.2945 62.9833,62.2574 62.9495,62.2206 62.9153,62.183 62.8814,62.1457 62.8473,62.1083 62.8132,62.0711 62.7799,62.0346 62.7465,61.998 62.7138,61.9623 62.6825,61.9282 62.6511,61.894 62.621,61.8614 62.593,61.8313 62.5649,61.8012 62.539,61.7735 62.515,61.7481 62.4909,61.7228 62.4688,61.6999 62.4488,61.6792 62.4287,61.6584 62.4105,61.64 62.3937,61.6229 62.3766,61.6059 62.3609,61.5901 62.3459,61.5751 62.3308,61.5602 62.3163,61.5458 62.3019,61.5317 62.2876,61.5175 62.2732,61.5035 62.2587,61.4894 62.2441,61.4751 62.2294,61.4607 62.2139,61.4459 62.1985,61.4311 62.1825,61.416 62.1659,61.4005 62.1492,61.3849 62.1317,61.3689 62.114,61.3531 62.0963,61.3373 62.0782,61.3215 62.06,61.3058 62.042,61.2902 62.0236,61.2746 62.0052,61.2588 61.9868,61.2431 61.9684,61.2273 61.9501,61.2115 61.9317,61.1957 61.9131,61.1799 61.8946,61.1641 61.8762,61.1485 61.8577,61.1328 61.839,61.1172 61.8202,61.1017 61.8014,61.0864 61.7823,61.0714 61.7631,61.0565 61.7437,61.0418 61.724,61.0278 61.7041,61.0138 61.6837,61.0005 61.6629,60.9877 61.642,60.9748 61.6206,60.9628 61.5985,60.9505 61.5765,60.9383 61.5538,60.9259 61.5307,60.9134 61.5076,60.9009 61.4842,60.8881 61.4605,60.8752 61.437,60.8624 61.4131,60.8494 61.3892,60.8365 61.3655,60.8239 61.3416,60.8114 61.3178,60.7997 61.2941,60.788 61.2706,60.7771 61.2472,60.7679 c -0.0233,-0.0092 -0.0463,-0.0166 -0.0689,-0.0214 -0.0227,-0.0048 -0.0449,-0.0067 -0.0668,-0.0058 -0.0219,0.001 -0.0436,0.0051 -0.065,0.0119 -0.0212,0.0067 -0.0423,0.0161 -0.0632,0.0272 -0.0208,0.011 -0.0416,0.0237 -0.0621,0.0372 -0.0206,0.0135 -0.0411,0.0278 -0.0617,0.0423 -0.0203,0.0144 -0.0409,0.0293 -0.0613,0.0441 -0.0205,0.0146 -0.0412,0.0294 -0.0618,0.0441 -0.0207,0.0146 -0.0416,0.0291 -0.0627,0.0439 -0.021,0.0149 -0.0421,0.0298 -0.0634,0.0456 -0.0214,0.0158 -0.0428,0.0326 -0.0644,0.0502 -0.0215,0.0178 -0.0431,0.0364 -0.065,0.0555 -0.0217,0.0191 -0.0436,0.0387 -0.0655,0.0586 -0.0218,0.0199 -0.0439,0.0402 -0.0658,0.0604 -0.0219,0.0203 -0.0439,0.0407 -0.0658,0.0608 -0.0219,0.0202 -0.0438,0.0405 -0.0655,0.0605 -0.0219,0.02 -0.0434,0.0399 -0.065,0.0595 -0.0216,0.0197 -0.0431,0.0391 -0.0643,0.0587 -0.0212,0.0196 -0.0425,0.0392 -0.0633,0.0583 -0.0208,0.0193 -0.0413,0.038 -0.0615,0.0565 -0.0202,0.0184 -0.0401,0.0365 -0.06,0.0543 -0.0197,0.0179 -0.0394,0.0357 -0.0592,0.0535 -0.0197,0.0179 -0.0394,0.0359 -0.0596,0.0545 -0.0201,0.0184 -0.0404,0.0375 -0.0615,0.0577 -0.0209,0.0201 -0.0426,0.0415 -0.0653,0.0646 -0.0226,0.023 -0.0463,0.0479 -0.0709,0.0747 -0.0245,0.0267 -0.0502,0.0553 -0.0765,0.0854 -0.026,0.0302 -0.0529,0.0618 -0.08,0.0942 -0.0271,0.0324 -0.0543,0.0658 -0.0818,0.0996 -0.0275,0.0337 -0.0551,0.068 -0.0829,0.1022 -0.0277,0.0344 -0.0557,0.069 -0.084,0.1039 -0.0283,0.0347 -0.0569,0.0696 -0.0864,0.1048 -0.0294,0.0354 -0.0596,0.0711 -0.0912,0.1075 -0.0315,0.0366 -0.0644,0.0738 -0.0988,0.1123 -0.0345,0.0385 -0.0705,0.0782 -0.1081,0.1188 -0.0375,0.0407 -0.0765,0.0822 -0.1164,0.1243 -0.0398,0.042 -0.0806,0.0846 -0.1218,0.1274 -0.0411,0.0428 -0.0827,0.0858 -0.1245,0.1291 -0.0417,0.0431 -0.0836,0.0866 -0.1254,0.1302 -0.0419,0.0436 -0.0837,0.0874 -0.1254,0.1318 -0.0418,0.0443 -0.0834,0.0892 -0.1251,0.135 -0.0418,0.0458 -0.0835,0.0925 -0.1257,0.1404 -0.0422,0.0479 -0.0849,0.0973 -0.1287,0.1485 -0.0438,0.0512 -0.0886,0.1044 -0.1343,0.159 -0.0458,0.0547 -0.0923,0.1108 -0.1393,0.1676 -0.047,0.0566 -0.0944,0.1141 -0.1416,0.1715 -0.0472,0.0573 -0.0943,0.1144 -0.1405,0.1705 -0.0462,0.0562 -0.0916,0.1113 -0.1352,0.1642 -0.0436,0.0528 -0.0853,0.1035 -0.1244,0.1509 -0.039,0.0474 -0.0752,0.0912 -0.1086,0.132 -0.0334,0.0407 -0.0641,0.0784 -0.092,0.1129 -0.028,0.0346 -0.0533,0.0664 -0.0769,0.0962 -0.0236,0.0298 -0.0456,0.0579 -0.0668,0.0851 -0.0212,0.0271 -0.0415,0.0535 -0.0617,0.0795 -0.0202,0.026 -0.0402,0.0518 -0.0605,0.0778 -0.0202,0.0261 -0.0407,0.0522 -0.0617,0.0786 -0.021,0.0265 -0.0425,0.0533 -0.0646,0.0803 -0.022,0.027 -0.0446,0.0541 -0.0672,0.081 -0.0225,0.0268 -0.045,0.053 -0.0673,0.0788 -0.0223,0.0257 -0.0445,0.0512 -0.0665,0.0764 -0.0221,0.0252 -0.0441,0.05 -0.0661,0.0751 -0.0219,0.0248 -0.0438,0.0495 -0.0657,0.0742 -0.0219,0.0247 -0.0438,0.0494 -0.0658,0.0739 -0.022,0.0244 -0.0439,0.0489 -0.066,0.0731 -0.0221,0.0242 -0.0443,0.0481 -0.0666,0.0718 -0.0223,0.0235 -0.0447,0.0467 -0.0673,0.0693 -0.0225,0.0225 -0.0452,0.0447 -0.0682,0.0665 -0.0229,0.0217 -0.0462,0.0431 -0.0696,0.0645 -0.0235,0.0212 -0.0472,0.0423 -0.071,0.0634 -0.0237,0.0209 -0.0476,0.0419 -0.0715,0.0627 -0.0238,0.0209 -0.0476,0.0416 -0.0712,0.0624 -0.0236,0.0206 -0.0469,0.041 -0.0698,0.0609 -0.023,0.0201 -0.0454,0.0397 -0.0671,0.0586 -0.0217,0.0191 -0.0427,0.0373 -0.0629,0.0548 -0.0203,0.0174 -0.0398,0.0342 -0.0587,0.0505 -0.0189,0.0165 -0.0372,0.0325 -0.055,0.0484 -0.0179,0.0158 -0.0353,0.0316 -0.0526,0.0474 -0.0173,0.0158 -0.0343,0.0316 -0.0514,0.0471 -0.017,0.0155 -0.034,0.031 -0.0509,0.0458 -0.017,0.015 -0.034,0.0293 -0.051,0.0428 -0.0169,0.0135 -0.0339,0.0258 -0.0509,0.0367 -0.017,0.0107 -0.0339,0.0197 -0.0506,0.027 -0.0167,0.0072 -0.0332,0.0125 -0.0491,0.0164 -0.0159,0.0038 -0.0313,0.0063 -0.0463,0.0079 -0.015,0.0017 -0.0295,0.0027 -0.0439,0.0032 -0.0144,5e-4 -0.0286,6e-4 -0.0428,5e-4 -0.0143,-2e-4 -0.0286,-5e-4 -0.0433,-0.0012 -0.0147,-7e-4 -0.0299,-0.0016 -0.0459,-0.0034 -0.0159,-0.0017 -0.0328,-0.0042 -0.051,-0.008 C 54.4855,67.2217 54.466,67.2166 54.4451,67.2099 54.4242,67.2031 54.402,67.1946 54.3781,67.184 54.3542,67.1737 54.3288,67.1615 54.3022,67.1481 54.2757,67.1348 54.248,67.1205 54.2198,67.1054 54.1917,67.0904 54.163,67.0749 54.1343,67.0593 54.1056,67.0436 54.077,67.0278 54.0488,67.0123 54.0206,66.9969 53.993,66.9816 53.9664,66.9667 53.9399,66.9519 53.9144,66.9376 53.8905,66.9238 53.8667,66.9101 53.8444,66.897 53.8235,66.884 53.8027,66.8709 53.7831,66.8583 53.765,66.8456 53.7469,66.8331 53.7301,66.8209 53.7144,66.8087 53.6986,66.7965 53.6837,66.7847 53.6692,66.7728 53.6548,66.761 53.6408,66.7493 53.6268,66.7374 53.6129,66.7256 53.5989,66.7139 53.5848,66.7019 53.5706,66.69 53.5561,66.678 53.5411,66.6657 53.526,66.6533 53.5104,66.6408 53.494,66.6278 c -0.0164,-0.013 -0.0336,-0.0263 -0.0514,-0.0401 -0.0178,-0.0139 -0.036,-0.028 -0.0546,-0.0422 -0.0187,-0.0143 -0.0378,-0.0288 -0.0571,-0.0433 -0.0192,-0.0145 -0.0388,-0.029 -0.0584,-0.0434 -0.0196,-0.0145 -0.0394,-0.029 -0.0592,-0.0437 -0.0198,-0.0144 -0.0397,-0.0291 -0.0596,-0.0441 -0.0199,-0.015 -0.0398,-0.0301 -0.0599,-0.0457 -0.0201,-0.0158 -0.0402,-0.032 -0.0606,-0.0491 -0.0203,-0.0171 -0.0409,-0.035 -0.0618,-0.054 C 52.9506,66.2033 52.9293,66.1834 52.9078,66.1625 52.8862,66.1416 52.8643,66.1198 52.8422,66.0974 52.8201,66.0749 52.7978,66.0519 52.7754,66.0286 52.753,66.0053 52.7304,65.9817 52.7079,65.958 52.68534,65.9343 52.66277,65.9106 52.64026,65.8871 52.61774,65.8634 52.59529,65.8398 52.57293,65.8165 52.55056,65.7933 52.5283,65.77 52.50618,65.7472 52.48406,65.7243 52.46207,65.7016 52.44014,65.679 52.4182,65.6563 52.39635,65.6337 52.37456,65.611 52.35279,65.5885 52.3311,65.5658 52.30948,65.5432 c -0.0216,-0.0225 -0.04315,-0.0453 -0.06467,-0.0678 -0.02151,-0.0227 -0.04299,-0.0453 -0.06448,-0.068 -0.02149,-0.0227 -0.04299,-0.0453 -0.06453,-0.068 -0.02155,-0.0225 -0.04315,-0.0452 -0.06487,-0.0678 -0.02172,-0.0225 -0.04354,-0.0453 -0.06555,-0.068 -0.022,-0.0225 -0.04419,-0.0452 -0.06653,-0.0678 -0.02234,-0.0225 -0.04487,-0.0453 -0.0677,-0.0678 -0.0228,-0.0226 -0.04591,-0.0451 -0.06925,-0.0677 -0.02333,-0.0225 -0.04687,-0.0451 -0.07052,-0.0675 -0.02365,-0.0225 -0.0474,-0.0449 -0.07113,-0.0674 C 51.61652,64.843 51.59282,64.8206 51.56929,64.798 51.54577,64.7755 51.52243,64.7529 51.49945,64.7302 51.47648,64.7075 51.45387,64.6848 51.43185,64.6619 51.40982,64.639 51.38838,64.6158 51.3675,64.5926 51.34661,64.5694 51.32623,64.5458 51.30584,64.5213 51.28544,64.497 51.26506,64.4714 51.24451,64.4453 51.22396,64.4189 51.20326,64.3919 51.18249,64.3644 51.1617,64.337 51.14087,64.3091 51.12022,64.2815 51.09957,64.2538 51.0791,64.2263 51.05925,64.2 51.0394,64.1737 51.02019,64.1481 51.00228,64.1249 c -0.01793,-0.0232 -0.03454,-0.0444 -0.04904,-0.0622 -0.0145,-0.0178 -0.02683,-0.0321 -0.03686,-0.0429 -0.01002,-0.0109 -0.01784,-0.0185 -0.02377,-0.0229 -0.0059,-0.0043 -0.01,-0.0055 -0.01265,-0.004 -0.0026,0.0015 -0.0039,0.0055 -0.0042,0.0109 -3.3e-4,0.0054 2.2e-4,0.0122 0.0012,0.0192 9.6e-4,0.007 0.0023,0.0142 0.0036,0.0206 0.0013,0.0063 0.0025,0.0119 0.0035,0.016 9.7e-4,0.0039 0.0016,0.0067 0.002,0.0081 3.5e-4,0.0013 3.8e-4,0.0014 3.8e-4,0.0014"
       fill-rule="nonzero"
       vector-effect="none"
       id="path21"
       style="fill:none;stroke:#3369c9;stroke-width:1.5;stroke-linecap:butt;stroke-linejoin:miter;stroke-miterlimit:20;stroke-opacity:1"
       clip-path="url(#clipPath3)"
       transform="translate(-7.7031,-20.6667)" />
  </g>
  <!--generated on windows @ 2026-04-07 21:41:18 Mitteleuropäische Sommerzeit-->
</svg>
