<?xml version="1.0" encoding="UTF-8" standalone="no"?>
<svg
   width="100"
   height="100"
   version="1.1"
   id="svg38"
   sodipodi:docname="Damper_Icon_new6.svg"
   viewBox="0 0 100 100"
   inkscape:version="1.4.3 (0d15f75, 2025-12-25)"
   xmlns:inkscape="http://www.inkscape.org/namespaces/inkscape"
   xmlns:sodipodi="http://sodipodi.sourceforge.net/DTD/sodipodi-0.dtd"
   xmlns="http://www.w3.org/2000/svg"
   xmlns:svg="http://www.w3.org/2000/svg">
  <defs
     id="defs38" />
  <sodipodi:namedview
     inkscape:zoom="5.4594765"
     inkscape:cx="50.737465"
     inkscape:cy="35.71771"
     inkscape:window-width="1904"
     inkscape:window-height="1289"
     inkscape:window-x="2776"
     inkscape:window-y="737"
     inkscape:window-maximized="0"
     inkscape:current-layer="g2"
     id="namedview1"
     pagecolor="#ffffff"
     bordercolor="#000000"
     borderopacity="0.25"
     inkscape:showpageshadow="2"
     inkscape:pageopacity="0.0"
     inkscape:pagecheckerboard="0"
     inkscape:deskcolor="#d1d1d1" />
  <g
     id="g2"
     transform="matrix(2.5,0,0,2.5,-75,-75)">
    <path
       d="M 30,51.9624 H 47"
       fill-rule="nonzero"
       vector-effect="none"
       id="path9"
       style="fill:none;stroke:#44805c;stroke-width:1.5;stroke-linecap:butt;stroke-linejoin:miter;stroke-miterlimit:20;stroke-opacity:1" />
    <path
       d="m 47.0001,46.9125 v 9.1"
       fill-rule="nonzero"
       vector-effect="none"
       id="path11"
       style="fill:none;stroke:#44805c;stroke-width:1.5;stroke-linecap:butt;stroke-linejoin:miter;stroke-miterlimit:20;stroke-opacity:1" />
    <path
       d="m 39.5001,46.9125 h 15 v 9.1 h -15"
       fill-rule="nonzero"
       vector-effect="none"
       id="path13"
       style="fill:none;stroke:#44805c;stroke-width:1.5;stroke-linecap:butt;stroke-linejoin:miter;stroke-miterlimit:20;stroke-opacity:1" />
    <path
       d="M 55,51.9624 H 70"
       fill-rule="nonzero"
       vector-effect="none"
       id="path15"
       style="fill:none;stroke:#44805c;stroke-width:1.5;stroke-linecap:butt;stroke-linejoin:miter;stroke-miterlimit:20;stroke-opacity:1" />
    <path
       d="m 32.1251,49.0625 v -5.725 h 2.537496 c 0.516672,0 0.906256,0.05208 1.168752,0.156248 0.262504,0.104168 0.475,0.285416 0.637504,0.543752 0.162496,0.258336 0.243744,0.545832 0.243744,0.862504 0,0.408328 -0.133328,0.75 -0.4,1.024992 -0.266664,0.275008 -0.670832,0.454168 -1.212496,0.537504 0.2,0.09166 0.35,0.183336 0.45,0.275 0.225,0.208336 0.433336,0.462504 0.625,0.762504 l 1,1.562496 h -0.95 l -0.762504,-1.187504 c -0.216664,-0.35 -0.397912,-0.614576 -0.543744,-0.793744 -0.145832,-0.179168 -0.275,-0.306256 -0.387504,-0.381248 -0.112496,-0.07501 -0.22708,-0.125008 -0.343744,-0.15 -0.08334,-0.01667 -0.225008,-0.02501 -0.425008,-0.02501 h -0.874992 v 2.537504 H 32.1251 m 0.762504,-3.2 h 1.624992 c 0.35,0 0.62292,-0.03542 0.818752,-0.106248 0.195832,-0.07083 0.343752,-0.185416 0.443752,-0.343752 0.1,-0.158336 0.15,-0.329168 0.15,-0.512496 0,-0.275008 -0.09792,-0.5 -0.293752,-0.675008 C 35.435516,44.050002 35.1251,43.962498 34.7001,43.962498 h -1.812496 v 1.9"
       fill-rule="nonzero"
       vector-effect="none"
       id="path17"
       style="fill:#000000;fill-opacity:1;stroke:none;stroke-width:0.8;stroke-linecap:square;stroke-linejoin:bevel;stroke-opacity:0" />
    <path
       d="m 66.6001,47.050004 0.762496,0.2 c -0.158328,0.616664 -0.443744,1.089579 -0.856248,1.418746 -0.412496,0.329167 -0.918744,0.49375 -1.518744,0.49375 -0.616672,0 -1.118752,-0.127083 -1.506256,-0.38125 C 63.093852,48.527083 62.8001,48.1625 62.6001,47.6875 c -0.2,-0.475 -0.3,-0.987496 -0.3,-1.537496 0,-0.591672 0.114583,-1.110424 0.34375,-1.556256 0.22917,-0.445832 0.55417,-0.783328 0.975002,-1.012496 C 64.039684,43.352084 64.5001,43.2375 65.0001,43.2375 c 0.575,0 1.058336,0.145832 1.45,0.437496 0.391664,0.291672 0.662496,0.7 0.812496,1.225008 l -0.75,0.187496 c -0.133328,-0.416664 -0.324992,-0.720832 -0.574992,-0.912504 -0.25,-0.191664 -0.566672,-0.287496 -0.95,-0.287496 -0.441672,0 -0.810424,0.106248 -1.106256,0.318752 -0.295832,0.212496 -0.504168,0.495832 -0.625,0.85 -0.120832,0.354168 -0.181248,0.718744 -0.181248,1.093752 0,0.491664 0.07083,0.918744 0.212504,1.281248 0.141664,0.362496 0.362496,0.633328 0.662496,0.812496 0.3,0.179169 0.625,0.268752 0.975,0.268752 0.425,0 0.785416,-0.122917 1.081248,-0.368752 0.295832,-0.245832 0.493752,-0.610416 0.593752,-1.093744 z"
       fill-rule="nonzero"
       vector-effect="none"
       id="path19"
       style="fill:#000000;fill-opacity:1;stroke:none;stroke-width:0.8;stroke-linecap:square;stroke-linejoin:bevel;stroke-opacity:0" />
  </g>
  <!--generated on windows @ 2026-04-07 04:26:43 Mitteleuropäische Sommerzeit-->
</svg>
