<?xml version="1.0" encoding="UTF-8" standalone="no"?>
<svg
   width="100"
   height="100"
   viewBox="0 0 100 100"
   version="1.1"
   id="svg58"
   sodipodi:docname="Ideal_Torque_source.svg"
   inkscape:version="1.4.3 (0d15f75, 2025-12-25)"
   xmlns:inkscape="http://www.inkscape.org/namespaces/inkscape"
   xmlns:sodipodi="http://sodipodi.sourceforge.net/DTD/sodipodi-0.dtd"
   xmlns="http://www.w3.org/2000/svg"
   xmlns:svg="http://www.w3.org/2000/svg">
  <defs
     id="defs1">
    <defs
       id="defs2" />
    <defs
       id="defs4" />
    <defs
       id="defs6" />
    <defs
       id="defs8" />
    <defs
       id="defs10" />
    <defs
       id="defs12" />
    <defs
       id="defs14" />
    <defs
       id="defs16" />
    <defs
       id="defs18" />
    <defs
       id="defs20" />
    <defs
       id="defs22" />
    <defs
       id="defs24" />
    <defs
       id="defs26" />
    <defs
       id="defs28" />
    <defs
       id="defs30" />
    <defs
       id="defs32" />
    <clipPath
       clipPathUnits="userSpaceOnUse"
       id="clipPath1">
      <path
         d="M 14.381459,84.166667 V -0.833335 h 70.000002 v 85.000002 z"
         id="path1"
         style="stroke-width:1.66667" />
    </clipPath>
    <clipPath
       clipPathUnits="userSpaceOnUse"
       id="clipPath2">
      <path
         d="M 13.548126,84.166667 V 0.8333321 H 85.214794 V 84.166667 Z"
         id="path26"
         style="stroke-width:1.66667" />
    </clipPath>
    <clipPath
       clipPathUnits="userSpaceOnUse"
       id="clipPath26">
      <path
         d="M 13.548126,84.166667 V 0.8333321 H 85.214794 V 84.166667 Z"
         id="path28"
         style="stroke-width:1.66667" />
    </clipPath>
    <clipPath
       clipPathUnits="userSpaceOnUse"
       id="clipPath28">
      <path
         d="M 36.88146,100 V 83.333333 H 20.214793 V 100 Z"
         id="path30"
         style="stroke-width:1.66667" />
    </clipPath>
    <clipPath
       clipPathUnits="userSpaceOnUse"
       id="clipPath30">
      <path
         d="M 37.842958,100 V 83.333333 H 21.176291 V 100 Z"
         id="path32"
         style="stroke-width:1.66667" />
    </clipPath>
    <clipPath
       clipPathUnits="userSpaceOnUse"
       id="clipPath32">
      <path
         d="M 13.964584,-2.104e-4 V 83.333126 H 84.79792 V -2.104e-4 Z"
         id="path34"
         style="stroke-width:2.08333" />
    </clipPath>
    <clipPath
       clipPathUnits="userSpaceOnUse"
       id="clipPath34">
      <path
         d="M 13.554273,-2.0833334e-6 V 83.333257 H 84.374441 V -2.0833334e-6 Z"
         id="path35"
         style="stroke-width:0.0135537" />
    </clipPath>
    <clipPath
       clipPathUnits="userSpaceOnUse"
       id="clipPath35">
      <path
         d="M 13.964584,-2.104e-4 V 83.333126 H 84.79792 V -2.104e-4 Z"
         id="path36"
         style="stroke-width:2.08333" />
    </clipPath>
    <clipPath
       clipPathUnits="userSpaceOnUse"
       id="clipPath36">
      <path
         d="M 13.964584,-2.104e-4 V 83.333126 H 84.79792 V -2.104e-4 Z"
         id="path37"
         style="stroke-width:2.08333" />
    </clipPath>
    <clipPath
       clipPathUnits="userSpaceOnUse"
       id="clipPath37">
      <path
         d="M 13.964584,-2.104e-4 V 83.333126 H 84.79792 V -2.104e-4 Z"
         id="path38"
         style="stroke-width:2.08333" />
    </clipPath>
    <clipPath
       clipPathUnits="userSpaceOnUse"
       id="clipPath38">
      <path
         d="M 13.964584,-2.104e-4 V 83.333126 H 84.79792 V -2.104e-4 Z"
         id="path39"
         style="stroke-width:2.08333" />
    </clipPath>
    <clipPath
       clipPathUnits="userSpaceOnUse"
       id="clipPath39">
      <path
         d="M 13.964584,-2.104e-4 V 83.333126 H 84.79792 V -2.104e-4 Z"
         id="path40"
         style="stroke-width:2.08333" />
    </clipPath>
    <clipPath
       clipPathUnits="userSpaceOnUse"
       id="clipPath40">
      <path
         d="M 13.964584,-2.104e-4 V 83.333126 H 84.79792 V -2.104e-4 Z"
         id="path41"
         style="stroke-width:2.08333" />
    </clipPath>
  </defs>
  <sodipodi:namedview
     id="namedview58"
     pagecolor="#ffffff"
     bordercolor="#000000"
     borderopacity="0.25"
     inkscape:showpageshadow="2"
     inkscape:pageopacity="0.0"
     inkscape:pagecheckerboard="0"
     inkscape:deskcolor="#d1d1d1"
     inkscape:document-units="mm"
     showgrid="false"
     inkscape:zoom="7.4319869"
     inkscape:cx="42.317082"
     inkscape:cy="45.142706"
     inkscape:window-width="1911"
     inkscape:window-height="1530"
     inkscape:window-x="3027"
     inkscape:window-y="605"
     inkscape:window-maximized="0"
     inkscape:current-layer="svg58">
    <inkscape:page
       x="0"
       y="0"
       width="100"
       height="100"
       id="page2"
       margin="0"
       bleed="0" />
  </sodipodi:namedview>
  <g
     id="g41"
     transform="translate(0.81316939)">
    <path
       d="M 35.146291,98.333333 29.509624,87.06 23.872958,98.333333 H 35.146291 M 37.842958,100 H 21.176291 L 29.509624,83.333333 37.842958,100"
       fill-rule="nonzero"
       vector-effect="none"
       id="path5"
       style="fill:#000000;fill-opacity:1;stroke:none;stroke-width:1.66667;stroke-linecap:square;stroke-linejoin:bevel;stroke-opacity:0"
       clip-path="url(#clipPath30)" />
    <path
       d="M 21.530501,41.509791 C 21.151939,28.410832 33.223335,17.527478 48.496252,17.198269 63.769169,16.869061 76.462711,27.21854 76.851878,40.317291 V 39.137499 59.296041 H 21.530501 Z"
       fill-rule="nonzero"
       vector-effect="none"
       id="path13"
       style="fill:none;stroke:#35d461;stroke-width:3.125;stroke-linecap:butt;stroke-linejoin:miter;stroke-miterlimit:4;stroke-opacity:1"
       clip-path="url(#clipPath36)" />
    <path
       d="M 71.256253,59.374791 V 84.374792"
       fill-rule="nonzero"
       vector-effect="none"
       id="path15"
       style="fill:none;stroke:#35d461;stroke-width:3.125;stroke-linecap:butt;stroke-linejoin:miter;stroke-miterlimit:4;stroke-opacity:1"
       clip-path="url(#clipPath35)" />
    <path
       d="M 49.191252,32.020416 V 53.358958"
       fill-rule="nonzero"
       vector-effect="none"
       id="path17"
       style="fill:none;stroke:#35d461;stroke-width:3.125;stroke-linecap:butt;stroke-linejoin:miter;stroke-miterlimit:4;stroke-opacity:1"
       clip-path="url(#clipPath37)" />
    <path
       d="M 69.929378,41.509791 49.191252,23.710832 28.452918,41.509791"
       fill-rule="nonzero"
       vector-effect="none"
       id="path19"
       style="fill:none;stroke:#35d461;stroke-width:3.125;stroke-linecap:butt;stroke-linejoin:miter;stroke-miterlimit:4;stroke-opacity:1"
       clip-path="url(#clipPath39)" />
    <path
       d="m 38.126877,41.509791 11.064375,-9.489375 11.064167,9.489375"
       fill-rule="nonzero"
       vector-effect="none"
       id="path21"
       style="fill:none;stroke:#35d461;stroke-width:3.125;stroke-linecap:butt;stroke-linejoin:miter;stroke-miterlimit:4;stroke-opacity:1"
       clip-path="url(#clipPath40)" />
    <path
       d="M 29.589585,59.374791 V 84.374792"
       fill-rule="nonzero"
       vector-effect="none"
       id="path23"
       style="fill:none;stroke:#a06c70;stroke-width:3.125;stroke-linecap:butt;stroke-linejoin:miter;stroke-miterlimit:4;stroke-opacity:1"
       clip-path="url(#clipPath38)" />
    <path
       d="M 50.422919,17.708123 V 1.0414563"
       fill-rule="nonzero"
       vector-effect="none"
       id="path25"
       style="fill:none;stroke:#35d461;stroke-width:3.125;stroke-linecap:butt;stroke-linejoin:miter;stroke-miterlimit:4;stroke-opacity:1"
       clip-path="url(#clipPath32)" />
    <path
       d="M 44.38146,14.531249 H 32.454376 V 9.2447985 c 0,-1.0764 0.1085,-1.8880333 0.325517,-2.4349 0.217017,-0.5468834 0.594617,-0.9895834 1.132817,-1.3281334 0.5382,-0.3385333 1.13715,-0.5078 1.796883,-0.5078 0.850684,0 1.5625,0.2777667 2.1354,0.8333334 0.572934,0.55555 0.946184,1.3975667 1.1198,2.5260334 0.190967,-0.4166667 0.38195,-0.7291667 0.572917,-0.9375001 0.434033,-0.46875 0.96355,-0.9027833 1.58855,-1.3020833 l 3.2552,-2.0833334 v 1.9791667 l -2.473967,1.58855 c -0.729166,0.4513834 -1.280366,0.8289834 -1.653633,1.1328001 -0.373267,0.3038166 -0.638033,0.5729166 -0.794267,0.8073 -0.156266,0.2343666 -0.260433,0.4730833 -0.3125,0.7161331 -0.03473,0.173617 -0.0521,0.468767 -0.0521,0.885434 v 1.8229 h 5.286467 v 1.58855 m -6.666667,-1.58855 V 9.5572985 c 0,-0.7291666 -0.07378,-1.29775 -0.22135,-1.7057333 -0.147566,-0.4079834 -0.386283,-0.71615 -0.71615,-0.9244834 -0.329866,-0.2083333 -0.685766,-0.3125 -1.0677,-0.3125 -0.572933,0 -1.041667,0.204 -1.406267,0.6119834 -0.364566,0.4079833 -0.546866,1.0546833 -0.546866,1.9401 v 3.7760338 h 3.958333"
       fill-rule="nonzero"
       vector-effect="none"
       id="path27"
       style="fill:#000000;fill-opacity:1;stroke:none;stroke-width:1.66667;stroke-linecap:square;stroke-linejoin:bevel;stroke-opacity:0"
       clip-path="url(#clipPath1)" />
    <path
       d="m 19.719993,78.411459 -0.1302,-1.484375 c 0.590283,-0.06945 1.076383,-0.234384 1.458333,-0.494784 0.38195,-0.260433 0.6901,-0.659733 0.92448,-1.197933 0.234373,-0.538183 0.351562,-1.145833 0.351562,-1.8229 0,-0.60765 -0.08681,-1.1415 -0.260417,-1.601567 -0.173612,-0.460066 -0.416658,-0.80295 -0.729158,-1.02865 -0.3125,-0.2257 -0.65105,-0.33855 -1.015634,-0.33855 -0.38195,0 -0.7118,0.108517 -0.989583,0.325533 -0.277783,0.217017 -0.51215,0.577251 -0.703117,1.080734 -0.121533,0.3125 -0.31685,1.015617 -0.58595,2.109367 -0.2691,1.09375 -0.516483,1.866316 -0.742183,2.3177 -0.295133,0.572933 -0.664067,0.998266 -1.106767,1.27605 -0.442716,0.277778 -0.94185,0.416666 -1.4974,0.416666 -0.590283,0 -1.150167,-0.173611 -1.679683,-0.520833 -0.529517,-0.347217 -0.928817,-0.84635 -1.197917,-1.4974 -0.2691,-0.651033 -0.40365,-1.38455 -0.40365,-2.200517 0,-0.86805 0.143233,-1.640633 0.429683,-2.3177 0.286467,-0.6771 0.707467,-1.197933 1.263034,-1.5625 0.55555,-0.3646 1.18055,-0.56425 1.875,-0.598967 l 0.104166,1.510417 c -0.746533,0.0868 -1.315116,0.364584 -1.705733,0.833334 -0.390633,0.46875 -0.585933,1.1632 -0.585933,2.083333 0,0.954867 0.17795,1.6493 0.53385,2.083333 0.3559,0.434034 0.7769,0.65105 1.263016,0.65105 0.434034,0 0.789934,-0.156266 1.067701,-0.468766 0.277783,-0.295134 0.5599,-1.085067 0.846366,-2.369784 0.28645,-1.284716 0.542534,-2.16145 0.768234,-2.630216 0.3125,-0.694434 0.716133,-1.206584 1.210933,-1.536451 0.494783,-0.329866 1.063367,-0.494783 1.705733,-0.494783 0.625,0 1.219617,0.17795 1.783847,0.53385 0.564235,0.3559 1.002603,0.876733 1.315103,1.5625 0.3125,0.685767 0.46875,1.453984 0.46875,2.304684 0,1.076383 -0.15625,1.979166 -0.46875,2.708333 -0.3125,0.729167 -0.78559,1.302083 -1.419266,1.71875 -0.633684,0.416667 -1.349834,0.63368 -2.14845,0.651042 z"
       fill-rule="nonzero"
       vector-effect="none"
       id="path29"
       style="fill:#000000;fill-opacity:1;stroke:none;stroke-width:1.66667;stroke-linecap:square;stroke-linejoin:bevel;stroke-opacity:0"
       clip-path="url(#clipPath2)"
       transform="translate(20.317582)" />
    <path
       d="m 61.022094,69.375 0.416667,-1.588533 c 1.284716,0.32985 2.269956,0.924466 2.95572,1.78385 0.685764,0.859366 1.028646,1.91405 1.028646,3.16405 0,1.284733 -0.264757,2.330733 -0.79427,3.138033 -0.529515,0.807284 -1.289063,1.419267 -2.278646,1.835934 -0.989584,0.416666 -2.057284,0.625 -3.203117,0.625 -1.23265,0 -2.313384,-0.238715 -3.2422,-0.716147 -0.928817,-0.477437 -1.631934,-1.15452 -2.109367,-2.031253 -0.477433,-0.876734 -0.71615,-1.835934 -0.71615,-2.8776 0,-1.197917 0.303817,-2.204867 0.91145,-3.020834 0.60765,-0.815967 1.458333,-1.3802 2.5521,-1.6927 l 0.390617,1.5625 c -0.86805,0.277767 -1.501734,0.677067 -1.90105,1.1979 -0.3993,0.520834 -0.59895,1.180567 -0.59895,1.979167 0,0.92015 0.22135,1.688383 0.664066,2.3047 0.4427,0.616317 1.032984,1.05035 1.770834,1.302083 0.73785,0.251734 1.497383,0.3776 2.27865,0.3776 1.0243,0 1.91405,-0.147566 2.669267,-0.442716 0.7552,-0.295134 1.319433,-0.7552 1.6927,-1.3802 0.373268,-0.625 0.5599,-1.302084 0.5599,-2.03125 0,-0.885417 -0.256077,-1.636284 -0.768234,-2.252601 -0.51215,-0.616316 -1.2717,-1.02865 -2.278633,-1.236983 z"
       fill-rule="nonzero"
       vector-effect="none"
       id="path31"
       style="fill:#000000;fill-opacity:1;stroke:none;stroke-width:1.66667;stroke-linecap:square;stroke-linejoin:bevel;stroke-opacity:0"
       clip-path="url(#clipPath26)" />
  </g>
  <!--generated on windows @ 2026-04-07 21:41:19 Mitteleuropäische Sommerzeit-->
</svg>
