<?xml version="1.0" encoding="UTF-8" standalone="no"?>
<svg
   width="100"
   height="100"
   viewBox="0 0 100 100"
   version="1.1"
   id="svg74"
   sodipodi:docname="Ideal_torque_sensor.svg"
   inkscape:version="1.4.3 (0d15f75, 2025-12-25)"
   xmlns:inkscape="http://www.inkscape.org/namespaces/inkscape"
   xmlns:sodipodi="http://sodipodi.sourceforge.net/DTD/sodipodi-0.dtd"
   xmlns="http://www.w3.org/2000/svg"
   xmlns:svg="http://www.w3.org/2000/svg">
  <defs
     id="defs1" />
  <sodipodi:namedview
     id="namedview74"
     pagecolor="#ffffff"
     bordercolor="#000000"
     borderopacity="0.25"
     inkscape:showpageshadow="2"
     inkscape:pageopacity="0.0"
     inkscape:pagecheckerboard="0"
     inkscape:deskcolor="#d1d1d1"
     inkscape:document-units="mm"
     showgrid="false"
     inkscape:zoom="8.6274512"
     inkscape:cx="51.057953"
     inkscape:cy="48.797726"
     inkscape:window-width="2135"
     inkscape:window-height="1413"
     inkscape:window-x="2847"
     inkscape:window-y="677"
     inkscape:window-maximized="0"
     inkscape:current-layer="svg74">
    <inkscape:page
       x="0"
       y="0"
       width="100"
       height="100"
       id="page2"
       margin="0"
       bleed="0" />
  </sodipodi:namedview>
  <g
     id="g1"
     transform="translate(-0.10131854,29.25)">
    <path
       d="m 31.596875,26.483307 h 0.121212 v 0.121212 h -0.121212 z"
       fill-rule="nonzero"
       vector-effect="none"
       id="path7"
       style="fill:#35d461;fill-opacity:1;stroke:none;stroke-width:0.13468;stroke-linecap:square;stroke-linejoin:bevel;stroke-opacity:0" />
    <path
       d="m 31.657467,26.5439 h 7.38585"
       fill-rule="nonzero"
       vector-effect="none"
       id="path9"
       style="fill:none;stroke:#35d461;stroke-width:1.5;stroke-linecap:butt;stroke-linejoin:miter;stroke-miterlimit:20;stroke-opacity:1" />
    <path
       d="m 36.457467,26.6086 v -14.4"
       fill-rule="nonzero"
       vector-effect="none"
       id="path11"
       style="fill:none;stroke:#35d461;stroke-width:1.5;stroke-linecap:butt;stroke-linejoin:miter;stroke-miterlimit:20;stroke-opacity:1" />
    <path
       d="m 63.334217,26.6086 h 4.3232"
       fill-rule="nonzero"
       vector-effect="none"
       id="path13"
       style="fill:none;stroke:#35d461;stroke-width:1.5;stroke-linecap:butt;stroke-linejoin:miter;stroke-miterlimit:20;stroke-opacity:1" />
    <path
       d="m 55.180717,12.2086 h 6.2384 v 10.0768"
       fill-rule="nonzero"
       vector-effect="none"
       id="path15"
       style="fill:none;stroke:#35d461;stroke-width:1.5;stroke-linecap:butt;stroke-linejoin:miter;stroke-miterlimit:20;stroke-opacity:1" />
    <path
       d="M 46.542317,12.2086 H 36.457467"
       fill-rule="nonzero"
       vector-effect="none"
       id="path17"
       style="fill:none;stroke:#35d461;stroke-width:1.5;stroke-linecap:butt;stroke-linejoin:miter;stroke-miterlimit:20;stroke-opacity:1" />
    <path
       d="m 39.043317,26.5439 c 0,0 4.5e-4,-0.0017 0.0091,-0.0332 0.0086,-0.0314 0.02566,-0.0932 0.05213,-0.1875 0.02645,-0.0943 0.06203,-0.2198 0.10178,-0.3573 0.0398,-0.1374 0.0834,-0.2851 0.1262,-0.4255 0.0428,-0.1403 0.0847,-0.2732 0.1245,-0.3931 0.0398,-0.1199 0.0776,-0.2272 0.1144,-0.3242 0.0367,-0.0969 0.0726,-0.1837 0.1093,-0.2646 0.0367,-0.081 0.0743,-0.1564 0.1141,-0.23 0.0398,-0.0737 0.0817,-0.1454 0.1268,-0.217 0.045,-0.0717 0.0932,-0.1432 0.1448,-0.2146 0.0515,-0.0713 0.1064,-0.1426 0.1638,-0.2129 0.0575,-0.0703 0.1176,-0.1395 0.1789,-0.2062 0.0613,-0.0668 0.1238,-0.1312 0.1861,-0.1919 0.0622,-0.0607 0.1241,-0.1177 0.1848,-0.1708 0.0606,-0.053 0.12,-0.1021 0.1781,-0.1476 0.058,-0.0455 0.1148,-0.0874 0.1714,-0.1273 0.0566,-0.0398 0.1134,-0.0775 0.1718,-0.1142 0.0585,-0.0366 0.1185,-0.0719 0.1806,-0.106 0.062,-0.034 0.126,-0.0668 0.1913,-0.0976 0.0653,-0.0309 0.1318,-0.0598 0.1984,-0.0863 0.0666,-0.0266 0.1331,-0.0505 0.1984,-0.0717 0.0653,-0.021 0.1293,-0.0393 0.1913,-0.0547 0.062,-0.0153 0.1221,-0.0278 0.1805,-0.0378 0.0585,-0.01 0.1152,-0.0175 0.1719,-0.0229 0.0567,-0.0054 0.1134,-0.0088 0.1717,-0.0098 0.0583,-0.0011 0.1184,2e-4 0.1802,0.0041 0.0619,0.0039 0.1258,0.0105 0.191,0.0201 0.065,0.0096 0.1314,0.0221 0.1978,0.0374 0.0664,0.0154 0.1328,0.0336 0.1979,0.0543 0.0651,0.0208 0.129,0.0441 0.1909,0.0694 0.0619,0.0253 0.1219,0.0528 0.1802,0.0823 0.0584,0.0295 0.1151,0.061 0.1718,0.0951 0.0567,0.034 0.1134,0.0709 0.1715,0.1116 0.0584,0.0405 0.118,0.085 0.1792,0.1335 0.0611,0.0483 0.1239,0.1008 0.1872,0.1566 0.0633,0.0559 0.1272,0.115 0.1903,0.1763 0.0631,0.0613 0.1254,0.1246 0.1856,0.1884 0.06,0.0637 0.1179,0.128 0.1729,0.1917 0.0549,0.0637 0.1071,0.1267 0.1565,0.1891 0.0493,0.0623 0.096,0.1239 0.1413,0.1861 0.0452,0.0622 0.0891,0.1252 0.1326,0.1908 0.0435,0.0657 0.0868,0.1342 0.1295,0.2057 0.0426,0.0716 0.0848,0.1464 0.126,0.2238 0.0411,0.0776 0.0811,0.1576 0.1189,0.2389 0.0379,0.0813 0.0738,0.1638 0.1068,0.246 0.0332,0.0821 0.0635,0.164 0.0907,0.2445 0.0273,0.0807 0.0516,0.1602 0.0732,0.2387 0.0216,0.0787 0.0405,0.1562 0.0573,0.2352 0.0168,0.0789 0.0316,0.1591 0.0448,0.2428 0.0132,0.0836 0.0248,0.1705 0.0348,0.2609 0.0099,0.0902 0.0182,0.1838 0.0249,0.2794 0.0066,0.0955 0.0116,0.193 0.0148,0.2901 0.0034,0.0971 0.005,0.1937 0.0053,0.2877 2e-4,0.0939 -0.0011,0.185 -0.0034,0.2723 -0.0024,0.0872 -0.0059,0.1703 -0.0102,0.2494 -0.0043,0.0794 -0.0095,0.1547 -0.0154,0.2278 -0.0059,0.0731 -0.0124,0.1444 -0.0199,0.2158 -0.0076,0.0713 -0.0162,0.1426 -0.0257,0.2142 -0.0096,0.0718 -0.0203,0.1439 -0.032,0.2155 -0.0117,0.0717 -0.0245,0.1429 -0.0379,0.2127 -0.0137,0.0696 -0.0279,0.1378 -0.0427,0.2032 -0.0149,0.0655 -0.0302,0.1281 -0.0457,0.1879 -0.0155,0.0596 -0.0314,0.1163 -0.0474,0.1706 -0.016,0.0543 -0.0322,0.1062 -0.049,0.1572 -0.0169,0.051 -0.0344,0.1017 -0.0531,0.1526 -0.0187,0.0509 -0.0389,0.1023 -0.0606,0.1539 -0.0217,0.0516 -0.0451,0.1035 -0.07,0.1546 -0.0251,0.0511 -0.0516,0.1015 -0.0795,0.1498 -0.0277,0.0484 -0.0568,0.0947 -0.0867,0.1378 -0.0298,0.0432 -0.0604,0.0831 -0.0915,0.1194 -0.031,0.0363 -0.0625,0.069 -0.0944,0.0981 -0.032,0.0291 -0.0646,0.0547 -0.0986,0.0776 -0.0339,0.0229 -0.0693,0.0429 -0.1072,0.0604 -0.0378,0.0174 -0.0778,0.0321 -0.1204,0.0437 -0.0424,0.0114 -0.0873,0.0196 -0.1337,0.0241 -0.0465,0.0044 -0.0947,0.005 -0.1433,0.0013 -0.0486,-0.0036 -0.0977,-0.0114 -0.146,-0.0234 -0.0482,-0.012 -0.0958,-0.028 -0.1416,-0.0478 -0.0459,-0.0198 -0.0902,-0.0434 -0.1329,-0.0706 -0.0427,-0.0272 -0.0838,-0.0579 -0.124,-0.0928 -0.0403,-0.0349 -0.08,-0.0741 -0.1199,-0.1182 -0.0399,-0.0443 -0.08,-0.0936 -0.1203,-0.148 -0.0402,-0.0545 -0.0806,-0.114 -0.1205,-0.1776 -0.04,-0.0635 -0.0793,-0.1311 -0.1172,-0.2009 -0.038,-0.0699 -0.0745,-0.1418 -0.1085,-0.2137 -0.0342,-0.0721 -0.0662,-0.1441 -0.0955,-0.2147 -0.0292,-0.0706 -0.0559,-0.1397 -0.0803,-0.207 -0.0242,-0.0672 -0.046,-0.1327 -0.0661,-0.1973 -0.0201,-0.0647 -0.0384,-0.1289 -0.0555,-0.1944 -0.0171,-0.0654 -0.033,-0.1322 -0.0475,-0.2006 -0.0146,-0.0685 -0.0279,-0.1385 -0.0399,-0.2097 -0.012,-0.0711 -0.0225,-0.1433 -0.0317,-0.2153 -0.009,-0.0719 -0.0167,-0.1435 -0.0227,-0.2137 -0.0062,-0.0702 -0.0109,-0.1388 -0.0143,-0.2052 -0.0035,-0.0666 -0.0057,-0.131 -0.0069,-0.1937 -0.0013,-0.0628 -0.0014,-0.1238 -0.001,-0.1849 4e-4,-0.0612 0.0016,-0.1226 0.0037,-0.186 0.002,-0.0635 0.005,-0.1288 0.0091,-0.1967 0.0039,-0.0677 0.0088,-0.1379 0.015,-0.2098 0.0061,-0.0719 0.0134,-0.1454 0.0216,-0.2192 0.0083,-0.074 0.0176,-0.1482 0.0277,-0.2212 0.0103,-0.0731 0.0212,-0.145 0.0329,-0.2151 0.0117,-0.07 0.0241,-0.1382 0.0372,-0.2048 0.0129,-0.0667 0.0266,-0.1317 0.0413,-0.1971 0.0147,-0.0653 0.0303,-0.131 0.0477,-0.1988 0.0174,-0.0678 0.0365,-0.1377 0.0578,-0.2101 0.0211,-0.0721 0.0444,-0.1468 0.07,-0.2227 0.0255,-0.0761 0.0531,-0.1534 0.0826,-0.2306 0.0295,-0.0772 0.0607,-0.1542 0.0933,-0.2293 0.0326,-0.0751 0.0665,-0.1483 0.1014,-0.219 0.0349,-0.0706 0.0706,-0.1385 0.1075,-0.2038 0.0367,-0.0655 0.0746,-0.1285 0.1145,-0.1907 0.0398,-0.0622 0.0817,-0.1238 0.1268,-0.1863 0.045,-0.0623 0.0932,-0.1254 0.1447,-0.1891 0.0516,-0.0638 0.1062,-0.1282 0.1633,-0.192 0.0573,-0.064 0.1169,-0.1276 0.1775,-0.1891 0.0608,-0.0617 0.1225,-0.1212 0.1838,-0.1777 0.0611,-0.0563 0.1218,-0.1092 0.181,-0.1583 0.0591,-0.0491 0.1167,-0.0943 0.1728,-0.1358 0.0561,-0.0415 0.1105,-0.0793 0.1645,-0.1145 0.054,-0.0351 0.1078,-0.0679 0.163,-0.0987 0.0552,-0.0308 0.1119,-0.0597 0.1705,-0.0866 0.0586,-0.0269 0.1191,-0.0518 0.1811,-0.0742 0.0621,-0.0224 0.1258,-0.0422 0.1901,-0.0591 0.0642,-0.0169 0.129,-0.0309 0.1934,-0.0418 0.0644,-0.0108 0.1283,-0.0186 0.1912,-0.0234 0.0629,-0.005 0.1249,-0.0069 0.1863,-0.0063 0.0614,5e-4 0.1223,0.0036 0.1844,0.009 0.0621,0.0054 0.1255,0.0132 0.1918,0.0234 0.0661,0.0103 0.135,0.0232 0.2066,0.0387 0.0716,0.0153 0.1458,0.0335 0.2215,0.054 0.0756,0.0204 0.1525,0.0433 0.2288,0.0679 0.0764,0.0246 0.1522,0.0509 0.2253,0.0782 0.0732,0.0273 0.1437,0.0555 0.2107,0.084 0.0669,0.0286 0.1301,0.0574 0.1896,0.0864 0.0595,0.0288 0.1154,0.0577 0.1688,0.0872 0.0533,0.0295 0.1045,0.0596 0.155,0.0916 0.0505,0.0319 0.1003,0.0656 0.1499,0.1018 0.0494,0.0363 0.0988,0.0749 0.1476,0.1161 0.0489,0.0411 0.0972,0.0848 0.1446,0.1303 0.0474,0.0456 0.0938,0.0932 0.1386,0.1421 0.0449,0.0487 0.0882,0.099 0.1303,0.15 0.0418,0.051 0.0822,0.1029 0.122,0.156 0.0396,0.053 0.0784,0.1072 0.1177,0.164 0.0393,0.0568 0.0795,0.1164 0.1209,0.1805 0.0415,0.0641 0.0843,0.1325 0.1282,0.2059 0.0441,0.0733 0.0891,0.1515 0.1343,0.2335 0.0453,0.0822 0.0907,0.1681 0.1348,0.2562 0.0441,0.0881 0.087,0.1782 0.1274,0.2683 0.0404,0.0901 0.0784,0.1802 0.1132,0.2689 0.0347,0.0888 0.0662,0.1762 0.0947,0.2621 0.0282,0.0861 0.0534,0.1708 0.0758,0.2559 0.0223,0.0853 0.0421,0.1713 0.0596,0.2602 0.0177,0.0889 0.0332,0.1806 0.0465,0.2753 0.0135,0.0947 0.0248,0.1923 0.0341,0.2913 0.0091,0.0991 0.0163,0.1997 0.0215,0.2994 0.0052,0.0997 0.0082,0.1985 0.0096,0.2941 0.0013,0.0958 0.0011,0.1883 -7e-4,0.2764 -0.0016,0.0881 -0.0046,0.1719 -0.0085,0.2515 -0.0039,0.0797 -0.0086,0.1551 -0.014,0.2282 -0.0054,0.0732 -0.0114,0.1443 -0.0184,0.2154 -0.007,0.071 -0.015,0.1418 -0.0241,0.2129 -0.0092,0.0711 -0.0194,0.1425 -0.0309,0.2132 -0.0113,0.0709 -0.0239,0.1412 -0.0374,0.2099 -0.0136,0.0685 -0.0282,0.1354 -0.0435,0.1997 -0.0152,0.0642 -0.0313,0.1256 -0.0478,0.1842 -0.0166,0.0585 -0.0337,0.1138 -0.0513,0.1669 -0.0177,0.0529 -0.0359,0.1036 -0.055,0.1534 -0.0191,0.0498 -0.0393,0.0991 -0.0611,0.1488 -0.0219,0.0497 -0.0454,0.0998 -0.0707,0.1502 -0.0255,0.0504 -0.0528,0.101 -0.0818,0.1508 -0.0289,0.05 -0.0595,0.0992 -0.0912,0.1464 -0.0316,0.0473 -0.0643,0.0927 -0.0976,0.135 -0.0331,0.0423 -0.0665,0.0815 -0.1001,0.1171 -0.0334,0.0357 -0.0668,0.0679 -0.1,0.0967 -0.0333,0.0289 -0.0666,0.0543 -0.1005,0.0772 -0.034,0.0229 -0.0687,0.0431 -0.1053,0.0609 -0.0365,0.0178 -0.0746,0.0329 -0.1147,0.045 -0.04,0.0121 -0.0818,0.0211 -0.1248,0.0265 -0.0431,0.0053 -0.0874,0.0069 -0.1318,0.0045 -0.0446,-0.0026 -0.0893,-0.0091 -0.1332,-0.0197 -0.0441,-0.0106 -0.0872,-0.0252 -0.1289,-0.0435 -0.0418,-0.0185 -0.0822,-0.0405 -0.1213,-0.0663 -0.0389,-0.0256 -0.0766,-0.0549 -0.1138,-0.0882 -0.0371,-0.0334 -0.074,-0.0708 -0.1113,-0.1135 -0.0372,-0.0427 -0.0749,-0.0905 -0.1128,-0.1435 -0.0378,-0.053 -0.0759,-0.1112 -0.1136,-0.1737 -0.0376,-0.0625 -0.0748,-0.1293 -0.1105,-0.1987 -0.0358,-0.0693 -0.07,-0.1412 -0.1019,-0.2136 -0.0319,-0.0724 -0.0616,-0.1453 -0.0885,-0.2172 -0.0268,-0.0719 -0.0511,-0.1428 -0.0727,-0.2124 -0.0216,-0.0696 -0.0407,-0.138 -0.0577,-0.2062 -0.0169,-0.0681 -0.0319,-0.1365 -0.0454,-0.2068 -0.0133,-0.0705 -0.0252,-0.1427 -0.0355,-0.2171 -0.0103,-0.0744 -0.0191,-0.1512 -0.0266,-0.2291 -0.0074,-0.078 -0.0133,-0.1572 -0.0179,-0.2363 -0.0045,-0.0789 -0.0078,-0.1575 -0.0098,-0.2343 -0.002,-0.0769 -0.003,-0.1518 -0.0031,-0.224 -1e-4,-0.0722 5e-4,-0.1417 0.0016,-0.2087 0.0012,-0.0671 0.0028,-0.1318 0.0047,-0.1959 0.0019,-0.0641 0.0039,-0.1276 0.0064,-0.1926 0.0025,-0.0649 0.0054,-0.1311 0.0087,-0.1989 0.0034,-0.0677 0.0073,-0.1371 0.0119,-0.2074 0.0044,-0.0703 0.0095,-0.1414 0.0152,-0.2121 0.0058,-0.0707 0.0121,-0.1409 0.0188,-0.2093 0.0069,-0.0684 0.0142,-0.1351 0.022,-0.1993 0.0078,-0.0643 0.0162,-0.1262 0.0249,-0.1862 0.0089,-0.0599 0.0182,-0.1178 0.0282,-0.1753 0.0099,-0.0575 0.0208,-0.115 0.0331,-0.1739 0.0123,-0.059 0.0259,-0.1193 0.0415,-0.1815 0.0156,-0.0621 0.0331,-0.1262 0.0528,-0.1914 0.0196,-0.0652 0.0415,-0.1317 0.0653,-0.1981 0.0238,-0.0666 0.0497,-0.133 0.0772,-0.1983 0.0276,-0.0653 0.0568,-0.1294 0.0876,-0.1916 0.0307,-0.0624 0.0629,-0.1227 0.0969,-0.1818 0.0338,-0.059 0.0692,-0.1165 0.1072,-0.1743 0.038,-0.0578 0.0786,-0.1158 0.1229,-0.1755 0.0442,-0.0597 0.0922,-0.1208 0.1439,-0.1833 0.0517,-0.0626 0.1072,-0.1266 0.1656,-0.1908 0.0585,-0.0643 0.1199,-0.1288 0.1827,-0.1918 0.0629,-0.0632 0.1271,-0.1249 0.1911,-0.1836 0.0641,-0.0587 0.1278,-0.1145 0.1903,-0.1666 0.0623,-0.052 0.1235,-0.1002 0.183,-0.1449 0.0595,-0.0446 0.1176,-0.0855 0.1754,-0.1238 0.0577,-0.0382 0.1152,-0.0741 0.1744,-0.108 0.059,-0.0341 0.1196,-0.0663 0.1818,-0.0968 0.0623,-0.0305 0.1265,-0.0593 0.1916,-0.0858 0.0652,-0.0266 0.1315,-0.0511 0.1977,-0.0728 0.0663,-0.0218 0.1324,-0.041 0.1972,-0.0575 0.0648,-0.0164 0.1281,-0.0301 0.1897,-0.0412 0.0614,-0.011 0.1209,-0.0195 0.1788,-0.026 0.0578,-0.0063 0.1141,-0.0105 0.1702,-0.0129 0.0562,-0.0024 0.1125,-0.0032 0.1704,-0.002 0.0581,0.0011 0.1175,0.0042 0.1789,0.0094 0.0612,0.0053 0.1244,0.0128 0.1888,0.0226 0.0642,0.0099 0.1296,0.022 0.1947,0.0364 0.0652,0.0144 0.13,0.031 0.1934,0.0494 0.0633,0.0185 0.1252,0.0387 0.1848,0.0605 0.0595,0.0217 0.1169,0.045 0.1723,0.0696 0.0555,0.0247 0.1089,0.0508 0.1619,0.0787 0.0529,0.0279 0.1055,0.0579 0.1592,0.0909 0.0536,0.033 0.1082,0.0691 0.1643,0.1087 0.0559,0.0396 0.113,0.0827 0.1707,0.1291 0.0578,0.0464 0.1163,0.0962 0.174,0.1483 0.0578,0.0523 0.1152,0.1068 0.1708,0.1628 0.0556,0.0559 0.1096,0.1132 0.1615,0.1711 0.0517,0.0578 0.1014,0.1162 0.1492,0.1752 0.0478,0.059 0.0938,0.1187 0.1391,0.1802 0.0454,0.0616 0.0904,0.1254 0.1358,0.1931 0.0455,0.0678 0.0913,0.1396 0.1375,0.2158 0.0462,0.0761 0.0925,0.1566 0.1383,0.2407 0.046,0.084 0.0911,0.1717 0.1344,0.261 0.0434,0.0893 0.085,0.1802 0.1237,0.271 0.0386,0.0906 0.0745,0.181 0.107,0.2699 0.0325,0.0888 0.0617,0.1763 0.0877,0.262 0.026,0.086 0.0488,0.1705 0.069,0.2555 0.0202,0.085 0.038,0.1709 0.0536,0.26 0.0157,0.0889 0.0293,0.1807 0.0411,0.2758 0.0115,0.0951 0.0214,0.1933 0.0291,0.2933 0.0078,0.1002 0.0136,0.2022 0.0175,0.3037 0.0039,0.1017 0.0059,0.2029 0.0063,0.3014 4e-4,0.0986 -7e-4,0.1947 -0.003,0.2868 -0.0023,0.0921 -0.0058,0.1804 -0.0099,0.2652 -0.0043,0.0847 -0.0093,0.1659 -0.0149,0.2455 -0.0055,0.0796 -0.0117,0.1581 -0.0185,0.2372 -0.007,0.079 -0.0149,0.1586 -0.0236,0.239 -0.0088,0.0804 -0.0186,0.1615 -0.0292,0.2423 -0.0108,0.0808 -0.0225,0.1612 -0.035,0.2396 -0.0126,0.0782 -0.0259,0.1545 -0.0398,0.2272 -0.0139,0.0727 -0.0283,0.1418 -0.0431,0.2067 -0.0148,0.065 -0.0299,0.1257 -0.0455,0.1827 -0.0155,0.0569 -0.0314,0.1103 -0.0481,0.1613 -0.0167,0.0511 -0.0342,0.1002 -0.053,0.1484 -0.0189,0.0484 -0.0392,0.0958 -0.0613,0.1422 -0.0221,0.0466 -0.0458,0.0922 -0.0711,0.1363 -0.0254,0.0442 -0.0523,0.0868 -0.0804,0.1269 -0.0282,0.0401 -0.0574,0.078 -0.0873,0.1127 -0.0299,0.0348 -0.0603,0.0664 -0.0912,0.095 -0.0307,0.0284 -0.0617,0.0539 -0.0931,0.0765 -0.0312,0.0226 -0.0629,0.0424 -0.0956,0.0603 -0.0327,0.0179 -0.0666,0.034 -0.1026,0.0481 -0.036,0.0141 -0.0741,0.0264 -0.1142,0.0365 -0.0401,0.0101 -0.0824,0.0181 -0.1263,0.0232 -0.0439,0.0052 -0.0893,0.0076 -0.1353,0.0072 -0.046,-4e-4 -0.0924,-0.0037 -0.1383,-0.0101 -0.0458,-0.0063 -0.091,-0.0156 -0.1349,-0.0277 -0.0439,-0.012 -0.0866,-0.0267 -0.128,-0.044 -0.0413,-0.0174 -0.0815,-0.0372 -0.1211,-0.0601 -0.0395,-0.0229 -0.079,-0.0488 -0.1191,-0.0784 -0.04,-0.0298 -0.0807,-0.0634 -0.1219,-0.1013 -0.0412,-0.0378 -0.0831,-0.08 -0.1249,-0.126 -0.0417,-0.046 -0.0835,-0.0959 -0.124,-0.1486 -0.0407,-0.0528 -0.0803,-0.1084 -0.1179,-0.1655 -0.0375,-0.0572 -0.0732,-0.1158 -0.1065,-0.1751 -0.0334,-0.0593 -0.0642,-0.1189 -0.0929,-0.1791 -0.0288,-0.0602 -0.0552,-0.1207 -0.0803,-0.1829 -0.025,-0.0622 -0.0486,-0.1263 -0.0714,-0.1938 -0.0227,-0.0676 -0.0446,-0.1387 -0.0657,-0.2135 -0.021,-0.0747 -0.0412,-0.1533 -0.0603,-0.2343 -0.019,-0.0812 -0.0371,-0.1651 -0.0536,-0.2497 -0.0166,-0.0847 -0.0317,-0.1701 -0.0453,-0.2544 -0.0136,-0.0843 -0.0254,-0.1674 -0.0359,-0.2481 -0.0104,-0.0807 -0.0193,-0.1591 -0.027,-0.2352 -0.0075,-0.0759 -0.0139,-0.1497 -0.0192,-0.2229 -0.0054,-0.0731 -0.01,-0.146 -0.0135,-0.2204 -0.0036,-0.0744 -0.0062,-0.1503 -0.0077,-0.2282 -0.0016,-0.0777 -0.002,-0.1573 -0.0012,-0.2378 8e-4,-0.0806 0.003,-0.1619 0.0063,-0.2427 0.0034,-0.0807 0.0081,-0.1606 0.0139,-0.2381 0.0059,-0.0777 0.0131,-0.153 0.0211,-0.2254 0.0083,-0.0721 0.0176,-0.1414 0.0278,-0.2079 0.0102,-0.0665 0.0215,-0.1305 0.0341,-0.1934 0.0125,-0.0629 0.0262,-0.1253 0.0416,-0.1883 0.0153,-0.0632 0.0323,-0.1269 0.0509,-0.1915 0.0186,-0.0645 0.0388,-0.1298 0.0603,-0.1949 0.0214,-0.065 0.0443,-0.1299 0.0679,-0.1931 0.0236,-0.0632 0.0478,-0.1246 0.0721,-0.1832 0.0243,-0.0584 0.0486,-0.1139 0.0726,-0.1658 0.0239,-0.052 0.0474,-0.1002 0.0704,-0.1453 0.023,-0.045 0.0455,-0.0869 0.0679,-0.1265 0.0223,-0.0396 0.0447,-0.0773 0.0678,-0.1144 0.0232,-0.0371 0.0472,-0.0734 0.0724,-0.1097 0.0252,-0.0361 0.0514,-0.0722 0.0789,-0.108 0.0275,-0.0358 0.056,-0.0715 0.0854,-0.1068 0.0295,-0.0353 0.0596,-0.07 0.0902,-0.1042 0.0307,-0.0342 0.0617,-0.0679 0.0929,-0.101 0.0314,-0.0332 0.0628,-0.0658 0.0947,-0.0983 0.0318,-0.0326 0.0641,-0.0654 0.0978,-0.0993 0.0337,-0.0339 0.0688,-0.0694 0.1064,-0.1067 0.0376,-0.0374 0.0777,-0.0767 0.1205,-0.118 0.0429,-0.0412 0.0885,-0.0841 0.1363,-0.1282 0.048,-0.0439 0.0982,-0.0889 0.1497,-0.1333 0.0514,-0.0446 0.1042,-0.0886 0.1571,-0.131 0.0528,-0.0423 0.1059,-0.0831 0.1583,-0.1213 0.0524,-0.0382 0.1041,-0.0739 0.1553,-0.1069 0.0513,-0.0331 0.1019,-0.0636 0.1531,-0.092 0.0512,-0.0284 0.1033,-0.0548 0.1576,-0.0798 0.0544,-0.025 0.111,-0.0484 0.1702,-0.0702 0.0593,-0.022 0.1211,-0.0422 0.1851,-0.0602 0.0639,-0.0182 0.1298,-0.0342 0.1966,-0.0478 0.0668,-0.0138 0.1344,-0.0249 0.2015,-0.0334 0.067,-0.0086 0.1334,-0.0146 0.1986,-0.0181 0.0652,-0.0035 0.1292,-0.0046 0.192,-0.0035 0.0627,0.0012 0.1244,0.0046 0.1866,0.01 0.0622,0.0054 0.1251,0.0129 0.1905,0.023 0.0651,0.0103 0.1328,0.0232 0.2028,0.0393 0.07,0.0162 0.1427,0.0357 0.217,0.0588 0.0742,0.023 0.15,0.0495 0.2259,0.0794 0.0759,0.0299 0.1517,0.0631 0.2259,0.0989 0.0742,0.0359 0.1467,0.0746 0.2167,0.1154 0.07,0.0409 0.1375,0.084 0.2026,0.1294 0.0651,0.0454 0.1279,0.0931 0.19,0.144 0.0621,0.0509 0.1236,0.1053 0.1859,0.1646 0.0623,0.0592 0.1253,0.1232 0.1889,0.192 0.0637,0.0689 0.128,0.1427 0.1918,0.2201 0.0638,0.0774 0.1271,0.1585 0.1884,0.2414 0.0614,0.0828 0.1206,0.1671 0.1764,0.251 0.0558,0.0839 0.1082,0.1671 0.1565,0.2482 0.0484,0.0812 0.0927,0.1603 0.1332,0.237 0.0404,0.0768 0.0771,0.1512 0.1109,0.2248 0.0338,0.0737 0.0646,0.1463 0.0933,0.2212 0.0287,0.0747 0.0552,0.1519 0.0811,0.2353 0.0259,0.0833 0.0509,0.173 0.0761,0.2712 0.025,0.0982 0.0504,0.205 0.0751,0.3166 0.025,0.1116 0.0493,0.2278 0.0712,0.3353 0.0218,0.1073 0.0409,0.2048 0.0548,0.2778 0.014,0.073 0.0227,0.1205 0.0272,0.1448 0.0044,0.0241 0.0047,0.0254 0.0047,0.0254"
       fill-rule="nonzero"
       vector-effect="none"
       id="path19"
       style="fill:none;stroke:#35d461;stroke-width:1.5;stroke-linecap:butt;stroke-linejoin:miter;stroke-miterlimit:20;stroke-opacity:1" />
    <path
       d="M 53.257459,9.8085767 H 55.18069 V 14.608572 H 53.257459 Z"
       fill-rule="nonzero"
       vector-effect="none"
       id="path21"
       style="fill:#35d461;fill-opacity:1;stroke:none;stroke-width:0.13468;stroke-linecap:square;stroke-linejoin:bevel;stroke-opacity:0" />
    <path
       d="m 53.257417,9.8085999 h 1.9233 V 14.6086 h -1.9233 z"
       fill-rule="nonzero"
       vector-effect="none"
       id="path23"
       style="fill:none;stroke:#35d461;stroke-width:1.5;stroke-linecap:butt;stroke-linejoin:miter;stroke-miterlimit:20;stroke-opacity:1" />
    <path
       d="m 46.542315,10.285344 4.315147,1.92323 -4.315147,1.923231 z"
       fill-rule="nonzero"
       vector-effect="none"
       id="path25"
       style="fill:#35d461;fill-opacity:1;stroke:none;stroke-width:0.13468;stroke-linecap:square;stroke-linejoin:bevel;stroke-opacity:0" />
    <path
       d="m 46.542317,10.2854 4.3151,1.9232 -4.3151,1.9232 z"
       fill-rule="nonzero"
       vector-effect="none"
       id="path27"
       style="fill:none;stroke:#35d461;stroke-width:1.5;stroke-linecap:butt;stroke-linejoin:miter;stroke-miterlimit:20;stroke-opacity:1" />
    <path
       d="m 34.542327,26.60856 1.915149,-4.323228 1.91515,4.323228 z"
       fill-rule="nonzero"
       vector-effect="none"
       id="path29"
       style="fill:#35d461;fill-opacity:1;stroke:none;stroke-width:0.13468;stroke-linecap:square;stroke-linejoin:bevel;stroke-opacity:0" />
    <path
       d="m 34.542307,26.6086 1.91516,-4.3232 1.91515,4.3232 z"
       fill-rule="nonzero"
       vector-effect="none"
       id="path31"
       style="fill:none;stroke:#35d461;stroke-width:1.5;stroke-linecap:butt;stroke-linejoin:miter;stroke-miterlimit:20;stroke-opacity:1" />
    <path
       d="m 59.495837,26.60856 1.92323,-4.323228 1.91515,4.323228 z"
       fill-rule="nonzero"
       vector-effect="none"
       id="path33"
       style="fill:#35d461;fill-opacity:1;stroke:none;stroke-width:0.13468;stroke-linecap:square;stroke-linejoin:bevel;stroke-opacity:0" />
    <path
       d="m 59.495817,26.6086 1.9233,-4.3232 1.9151,4.3232 z"
       fill-rule="nonzero"
       vector-effect="none"
       id="path35"
       style="fill:none;stroke:#35d461;stroke-width:1.5;stroke-linecap:butt;stroke-linejoin:miter;stroke-miterlimit:20;stroke-opacity:1" />
    <path
       d="m 30.202917,0.7499999 h 40 V 40.75 h -40 z"
       fill-rule="nonzero"
       vector-effect="none"
       id="path37"
       style="fill:none;stroke:#35d461;stroke-width:1.5;stroke-linecap:butt;stroke-linejoin:miter;stroke-miterlimit:20;stroke-opacity:1" />
    <path
       d="m 32.827917,23.55 v -5.725 h 2.537496 c 0.516672,0 0.906256,0.05208 1.168752,0.156248 0.262504,0.104168 0.475,0.285416 0.637504,0.543752 0.162496,0.258336 0.243744,0.545832 0.243744,0.862504 0,0.408328 -0.133328,0.75 -0.4,1.024992 -0.266664,0.275008 -0.670832,0.454168 -1.212496,0.537504 0.2,0.09166 0.35,0.183336 0.45,0.275 0.225,0.208336 0.433336,0.462504 0.625,0.762504 l 1,1.562496 h -0.95 l -0.762504,-1.187504 c -0.216664,-0.35 -0.397912,-0.614576 -0.543744,-0.793744 -0.145832,-0.179168 -0.275,-0.306256 -0.387504,-0.381248 -0.112496,-0.07501 -0.22708,-0.125008 -0.343744,-0.15 -0.08334,-0.01667 -0.225008,-0.02501 -0.425008,-0.02501 H 33.590421 V 23.55 h -0.762504 m 0.762504,-3.2 h 1.624992 c 0.35,0 0.62292,-0.03542 0.818752,-0.106248 0.195832,-0.07083 0.343752,-0.185416 0.443752,-0.343752 0.1,-0.158336 0.15,-0.329168 0.15,-0.512496 0,-0.275008 -0.09792,-0.5 -0.293752,-0.675008 C 36.138333,18.537504 35.827917,18.45 35.402917,18.45 h -1.812496 v 1.9"
       fill-rule="nonzero"
       vector-effect="none"
       id="path39"
       style="fill:#000000;fill-opacity:1;stroke:none;stroke-width:0.8;stroke-linecap:square;stroke-linejoin:bevel;stroke-opacity:0" />
    <path
       d="m 67.302917,11.537504 0.762496,0.2 c -0.158328,0.616664 -0.443744,1.089579 -0.856248,1.418746 -0.412496,0.329167 -0.918744,0.49375 -1.518744,0.49375 -0.616672,0 -1.118752,-0.127083 -1.506256,-0.38125 C 63.796669,13.014583 63.502917,12.65 63.302917,12.175 c -0.2,-0.475 -0.3,-0.987496 -0.3,-1.537496 0,-0.591672 0.114583,-1.110424 0.34375,-1.556256 0.22917,-0.445832 0.55417,-0.783328 0.975002,-1.012496 C 64.742501,7.839584 65.202917,7.725 65.702917,7.725 c 0.575,0 1.058336,0.145832 1.45,0.437496 0.391664,0.291672 0.662496,0.7 0.812496,1.225008 l -0.75,0.187496 C 67.082085,9.158336 66.890421,8.854168 66.640421,8.662496 66.390421,8.470832 66.073749,8.375 65.690421,8.375 c -0.441672,0 -0.810424,0.106248 -1.106256,0.318752 -0.295832,0.212496 -0.504168,0.495832 -0.625,0.85 -0.120832,0.354168 -0.181248,0.718744 -0.181248,1.093752 0,0.491664 0.07083,0.918744 0.212504,1.281248 0.141664,0.362496 0.362496,0.633328 0.662496,0.812496 0.3,0.179169 0.625,0.268752 0.975,0.268752 0.425,0 0.785416,-0.122917 1.081248,-0.368752 0.295832,-0.245832 0.493752,-0.610416 0.593752,-1.093744 z"
       fill-rule="nonzero"
       vector-effect="none"
       id="path41"
       style="fill:#000000;fill-opacity:1;stroke:none;stroke-width:0.8;stroke-linecap:square;stroke-linejoin:bevel;stroke-opacity:0" />
    <path
       d="M 65.477917,33.55 V 28.5 h -1.8875 v -0.675 h 4.5375 V 28.5 h -1.887496 v 5.05 z"
       fill-rule="nonzero"
       vector-effect="none"
       id="path43"
       style="fill:#000000;fill-opacity:1;stroke:none;stroke-width:0.8;stroke-linecap:square;stroke-linejoin:bevel;stroke-opacity:0" />
    <path
       d="m 93.002817,28.0444 5.4112,2.7056 -5.4112,2.7056 v -5.4112 m -0.8,-1.2944 v 8 l 8.000003,-4 -8.000003,-4"
       fill-rule="nonzero"
       vector-effect="none"
       id="path61"
       style="fill:#000000;fill-opacity:1;stroke:none;stroke-width:0.8;stroke-linecap:square;stroke-linejoin:bevel;stroke-opacity:0" />
    <path
       d="M 69.999917,11.2499 H 99.913554"
       fill-rule="evenodd"
       vector-effect="none"
       id="path69"
       style="fill:none;stroke:#35d461;stroke-width:1.45028;stroke-linecap:butt;stroke-linejoin:miter;stroke-miterlimit:2;stroke-opacity:1" />
    <path
       d="M 30.492999,21.2499 H -1.8291298e-4"
       fill-rule="evenodd"
       vector-effect="none"
       id="path71"
       style="fill:none;stroke:#35d461;stroke-width:1.46426;stroke-linecap:butt;stroke-linejoin:miter;stroke-miterlimit:2;stroke-opacity:1" />
    <path
       d="M 70.92719,31.2499 H 92.999918"
       fill-rule="evenodd"
       vector-effect="none"
       id="path73"
       style="fill:none;stroke:#a06c70;stroke-width:1.46945;stroke-linecap:butt;stroke-linejoin:miter;stroke-miterlimit:2;stroke-opacity:1" />
  </g>
  <!--generated on windows @ 2026-04-07 21:41:18 Mitteleuropäische Sommerzeit-->
</svg>
