<?xml version="1.0" encoding="UTF-8" standalone="no"?>
<svg
   width="100"
   height="100"
   viewBox="0 0 100 100"
   version="1.1"
   id="svg66"
   sodipodi:docname="Ideal_Translational_Motion_sensor.svg"
   inkscape:version="1.4.3 (0d15f75, 2025-12-25)"
   xmlns:inkscape="http://www.inkscape.org/namespaces/inkscape"
   xmlns:sodipodi="http://sodipodi.sourceforge.net/DTD/sodipodi-0.dtd"
   xmlns="http://www.w3.org/2000/svg"
   xmlns:svg="http://www.w3.org/2000/svg">
  <defs
     id="defs1" />
  <sodipodi:namedview
     id="namedview66"
     pagecolor="#ffffff"
     bordercolor="#000000"
     borderopacity="0.25"
     inkscape:showpageshadow="2"
     inkscape:pageopacity="0.0"
     inkscape:pagecheckerboard="0"
     inkscape:deskcolor="#d1d1d1"
     inkscape:document-units="mm"
     showgrid="false"
     inkscape:zoom="8.6274503"
     inkscape:cx="51.115913"
     inkscape:cy="39.409094"
     inkscape:window-width="2054"
     inkscape:window-height="1427"
     inkscape:window-x="3056"
     inkscape:window-y="714"
     inkscape:window-maximized="0"
     inkscape:current-layer="svg66" />
  <g
     id="g1"
     transform="matrix(0.98039122,0,0,0.98039122,1.6396361e-4,29.656882)">
    <path
       d="m 33.475663,20.75 h 4 l 1.81817,5.8182 3.2727,-11.2727 4,10.909 3.6364,-10.909 3.6364,10.5454 3.6363,-10.5454 2.9091,10.909 2.1818,-5.4545 h 4"
       fill-rule="nonzero"
       vector-effect="none"
       id="path7"
       style="fill:none;stroke:#44805c;stroke-width:1.5;stroke-linecap:butt;stroke-linejoin:miter;stroke-miterlimit:20;stroke-opacity:1" />
    <path
       d="M 50.202933,6.5681797 V 15.2955"
       fill-rule="nonzero"
       vector-effect="none"
       id="path9"
       style="fill:none;stroke:#44805c;stroke-width:1.5;stroke-linecap:butt;stroke-linejoin:miter;stroke-miterlimit:20;stroke-opacity:1" />
    <path
       d="m 50.202933,15.29544 1.81818,-3.63636 h -3.63636 z"
       fill-rule="nonzero"
       vector-effect="none"
       id="path11"
       style="fill:#44805c;fill-opacity:1;stroke:none;stroke-width:0.13468;stroke-linecap:square;stroke-linejoin:bevel;stroke-opacity:0" />
    <path
       d="m 50.202933,15.2955 1.8182,-3.6364 h -3.6364 z"
       fill-rule="nonzero"
       vector-effect="none"
       id="path13"
       style="fill:none;stroke:#44805c;stroke-width:1.5;stroke-linecap:butt;stroke-linejoin:miter;stroke-miterlimit:20;stroke-opacity:1" />
    <path
       d="m 30.202933,0.7499997 h 40 V 40.75 h -40 z"
       fill-rule="nonzero"
       vector-effect="none"
       id="path15"
       style="fill:none;stroke:#44805c;stroke-width:1.5;stroke-linecap:butt;stroke-linejoin:miter;stroke-miterlimit:20;stroke-opacity:1" />
    <path
       d="m 31.409206,20.003182 v -5.725 h 2.537496 c 0.516672,0 0.906256,0.05208 1.168752,0.156248 0.262504,0.104168 0.475,0.285416 0.637504,0.543752 0.162496,0.258336 0.243744,0.545832 0.243744,0.862504 0,0.408328 -0.133328,0.75 -0.4,1.024992 -0.266664,0.275008 -0.670832,0.454168 -1.212496,0.537504 0.2,0.09166 0.35,0.183336 0.45,0.275 0.225,0.208336 0.433336,0.462504 0.625,0.762504 l 1,1.562496 h -0.95 l -0.762504,-1.187504 c -0.216664,-0.35 -0.397912,-0.614576 -0.543744,-0.793744 -0.145832,-0.179168 -0.275,-0.306256 -0.387504,-0.381248 -0.112496,-0.07501 -0.22708,-0.125008 -0.343744,-0.15 -0.08334,-0.01667 -0.225008,-0.02501 -0.425008,-0.02501 H 32.17171 v 2.537504 h -0.762504 m 0.762504,-3.2 h 1.624992 c 0.35,0 0.62292,-0.03542 0.818752,-0.106248 0.195832,-0.07083 0.343752,-0.185416 0.443752,-0.343752 0.1,-0.158336 0.15,-0.329168 0.15,-0.512496 0,-0.275008 -0.09792,-0.5 -0.293752,-0.675008 C 34.719622,14.990684 34.409206,14.90318 33.984206,14.90318 H 32.17171 v 1.9"
       fill-rule="nonzero"
       vector-effect="none"
       id="path17"
       style="fill:#000000;fill-opacity:1;stroke:none;stroke-width:0.8;stroke-linecap:square;stroke-linejoin:bevel;stroke-opacity:0" />
    <path
       d="m 67.302933,6.5375037 0.762496,0.2 c -0.158328,0.616664 -0.443744,1.0895792 -0.856248,1.4187456 -0.412496,0.329167 -0.918744,0.4937504 -1.518744,0.4937504 -0.616672,0 -1.118752,-0.1270834 -1.506256,-0.3812496 -0.387496,-0.2541672 -0.681248,-0.6187504 -0.881248,-1.0937504 -0.2,-0.475 -0.3,-0.987496 -0.3,-1.537496 0,-0.591672 0.114583,-1.110424 0.34375,-1.556256 0.22917,-0.445832 0.55417,-0.783328 0.975002,-1.012496 0.420832,-0.229168 0.881248,-0.343752 1.381248,-0.343752 0.575,0 1.058336,0.145832 1.45,0.437496 0.391664,0.291672 0.662496,0.7 0.812496,1.225008 l -0.75,0.187496 c -0.133328,-0.416664 -0.324992,-0.720832 -0.574992,-0.912504 -0.25,-0.191664 -0.566672,-0.287496 -0.95,-0.287496 -0.441672,0 -0.810424,0.106248 -1.106256,0.318752 -0.295832,0.212496 -0.504168,0.495832 -0.625,0.85 -0.120832,0.354168 -0.181248,0.718744 -0.181248,1.093752 0,0.491664 0.07083,0.918744 0.212504,1.281248 0.141664,0.362496 0.362496,0.633328 0.662496,0.812496 0.3,0.1791688 0.625,0.268752 0.975,0.268752 0.425,0 0.785416,-0.1229168 1.081248,-0.368752 0.295832,-0.245832 0.493752,-0.610416 0.593752,-1.093744 z"
       fill-rule="nonzero"
       vector-effect="none"
       id="path19"
       style="fill:#000000;fill-opacity:1;stroke:none;stroke-width:0.8;stroke-linecap:square;stroke-linejoin:bevel;stroke-opacity:0" />
    <path
       d="m 65.207614,20.239636 -2.2125,-5.725 h 0.8125 l 1.5,4.162504 c 0.116664,0.333328 0.216664,0.645832 0.3,0.937496 0.08334,-0.316664 0.183336,-0.629168 0.3,-0.937496 l 1.55,-4.162504 h 0.775 l -2.237496,5.725 z"
       fill-rule="nonzero"
       vector-effect="none"
       id="path21"
       style="fill:#000000;fill-opacity:1;stroke:none;stroke-width:0.8;stroke-linecap:square;stroke-linejoin:bevel;stroke-opacity:0" />
    <path
       d="m 63.215433,38.55 v -5.725 h 2.1625 c 0.383336,0 0.675,0.01666 0.875,0.05 0.283336,0.05 0.518752,0.139584 0.706248,0.268752 0.187504,0.129168 0.339584,0.312496 0.456248,0.55 0.116672,0.237496 0.175008,0.497912 0.175008,0.781248 0,0.491664 -0.154168,0.906248 -0.462504,1.243752 -0.308336,0.337496 -0.866664,0.506248 -1.675,0.506248 h -1.475 v 2.325 h -0.7625 m 0.7625,-3 h 1.475 c 0.491664,0 0.841664,-0.09166 1.05,-0.275 0.208336,-0.183336 0.312496,-0.441664 0.312496,-0.775 0,-0.241664 -0.06042,-0.445832 -0.181248,-0.612496 C 66.513349,33.720832 66.352933,33.608336 66.152933,33.55 66.019597,33.516664 65.782101,33.5 65.440437,33.5 h -1.462504 v 2.05"
       fill-rule="nonzero"
       vector-effect="none"
       id="path23"
       style="fill:#000000;fill-opacity:1;stroke:none;stroke-width:0.8;stroke-linecap:square;stroke-linejoin:bevel;stroke-opacity:0" />
    <path
       d="m 93.002833,18.0444 5.4112,2.7056 -5.4112,2.7056 v -5.4112 m -0.8,-1.2944 v 8 l 7.999997,-4 -7.999997,-4"
       fill-rule="nonzero"
       vector-effect="none"
       id="path41"
       style="fill:#000000;fill-opacity:1;stroke:none;stroke-width:0.8;stroke-linecap:square;stroke-linejoin:bevel;stroke-opacity:0" />
    <path
       d="m 93.002833,33.0444 5.4112,2.7056 -5.4112,2.7056 v -5.4112 m -0.8,-1.2944 v 8 l 7.999997,-4 -7.999997,-4"
       fill-rule="nonzero"
       vector-effect="none"
       id="path51"
       style="fill:#000000;fill-opacity:1;stroke:none;stroke-width:0.8;stroke-linecap:square;stroke-linejoin:bevel;stroke-opacity:0" />
    <path
       d="M 69.999933,6.2499 H 101.99993"
       fill-rule="evenodd"
       vector-effect="none"
       id="path59"
       style="fill:none;stroke:#44805c;stroke-width:1.5;stroke-linecap:butt;stroke-linejoin:miter;stroke-miterlimit:2;stroke-opacity:1" />
    <path
       d="M 30.581106,21.2499 H -1.6701479e-4"
       fill-rule="evenodd"
       vector-effect="none"
       id="path61"
       style="fill:none;stroke:#44805c;stroke-width:1.46637;stroke-linecap:butt;stroke-linejoin:miter;stroke-miterlimit:2;stroke-opacity:1" />
    <path
       d="M 70.827524,21.2499 H 92.999933"
       fill-rule="evenodd"
       vector-effect="none"
       id="path63"
       style="fill:none;stroke:#a06c70;stroke-width:1.47277;stroke-linecap:butt;stroke-linejoin:miter;stroke-miterlimit:2;stroke-opacity:1" />
    <path
       d="M 70.827524,36.2499 H 92.999933"
       fill-rule="evenodd"
       vector-effect="none"
       id="path65"
       style="fill:none;stroke:#a06c70;stroke-width:1.47277;stroke-linecap:butt;stroke-linejoin:miter;stroke-miterlimit:2;stroke-opacity:1" />
  </g>
  <!--generated on windows @ 2026-04-07 21:41:19 Mitteleuropäische Sommerzeit-->
</svg>
