<?xml version="1.0" encoding="UTF-8" standalone="no"?>
<svg
   width="100"
   height="100"
   viewBox="0 0 100 100"
   version="1.1"
   id="svg58"
   sodipodi:docname="Ideal_Force_source.svg"
   inkscape:version="1.4.3 (0d15f75, 2025-12-25)"
   xmlns:inkscape="http://www.inkscape.org/namespaces/inkscape"
   xmlns:sodipodi="http://sodipodi.sourceforge.net/DTD/sodipodi-0.dtd"
   xmlns="http://www.w3.org/2000/svg"
   xmlns:svg="http://www.w3.org/2000/svg">
  <defs
     id="defs1">
    <clipPath
       clipPathUnits="userSpaceOnUse"
       id="clipPath1">
      <path
         d="m 2.7030008,-1.01e-4 v 40 H 36.703001 v -40 z"
         id="path1"
         style="stroke-width:1" />
    </clipPath>
    <clipPath
       clipPathUnits="userSpaceOnUse"
       id="clipPath20">
      <path
         d="m 2.5031009,40.399999 v -40 H 36.903101 v 40 z"
         id="path32"
         style="stroke-width:0.799999" />
    </clipPath>
    <clipPath
       clipPathUnits="userSpaceOnUse"
       id="clipPath32">
      <path
         d="m 2.7030008,-1.01e-4 v 40 H 36.703001 v -40 z"
         id="path34"
         style="stroke-width:1" />
    </clipPath>
    <clipPath
       clipPathUnits="userSpaceOnUse"
       id="clipPath34">
      <path
         d="m 2.7030008,-1.01e-4 v 40 H 36.703001 v -40 z"
         id="path35"
         style="stroke-width:1" />
    </clipPath>
    <clipPath
       clipPathUnits="userSpaceOnUse"
       id="clipPath35">
      <path
         d="m 13.703101,47.999999 v -8 H 5.7031008 v 8 z"
         id="path36"
         style="stroke-width:0.799999" />
    </clipPath>
    <clipPath
       clipPathUnits="userSpaceOnUse"
       id="clipPath36">
      <path
         d="m 2.7030008,-1.01e-4 v 40 H 36.703001 v -40 z"
         id="path37"
         style="stroke-width:1" />
    </clipPath>
    <clipPath
       clipPathUnits="userSpaceOnUse"
       id="clipPath37">
      <path
         d="m 2.7030008,-1.01e-4 v 40 H 36.703001 v -40 z"
         id="path38"
         style="stroke-width:1" />
    </clipPath>
    <clipPath
       clipPathUnits="userSpaceOnUse"
       id="clipPath38">
      <path
         d="m 2.5031009,40.399999 v -40 H 36.903101 v 40 z"
         id="path39"
         style="stroke-width:0.799999" />
    </clipPath>
    <clipPath
       clipPathUnits="userSpaceOnUse"
       id="clipPath39">
      <path
         d="m 2.7030008,-1.01e-4 v 40 H 36.703001 v -40 z"
         id="path40"
         style="stroke-width:1" />
    </clipPath>
    <clipPath
       clipPathUnits="userSpaceOnUse"
       id="clipPath40">
      <path
         d="m 2.9031011,40.399999 v -40.8 H 36.503101 v 40.8 z"
         id="path41"
         style="stroke-width:0.799999" />
    </clipPath>
    <clipPath
       clipPathUnits="userSpaceOnUse"
       id="clipPath42">
      <path
         d="m 2.7030008,-1.01e-4 v 40 H 36.703001 v -40 z"
         id="path43"
         style="stroke-width:1" />
    </clipPath>
  </defs>
  <sodipodi:namedview
     id="namedview58"
     pagecolor="#ffffff"
     bordercolor="#000000"
     borderopacity="0.25"
     inkscape:showpageshadow="2"
     inkscape:pageopacity="0.0"
     inkscape:pagecheckerboard="0"
     inkscape:deskcolor="#d1d1d1"
     inkscape:document-units="mm"
     showgrid="false"
     inkscape:zoom="7.4319869"
     inkscape:cx="45.68092"
     inkscape:cy="47.497393"
     inkscape:window-width="1969"
     inkscape:window-height="1457"
     inkscape:window-x="2816"
     inkscape:window-y="703"
     inkscape:window-maximized="0"
     inkscape:current-layer="svg58">
    <inkscape:page
       x="0"
       y="0"
       width="100"
       height="100"
       id="page2"
       margin="0"
       bleed="0" />
  </sodipodi:namedview>
  <g
     id="g43"
     transform="matrix(2.1052587,0,0,2.1052587,11.963236,-1.0524161)">
    <path
       d="m 12.408701,47.199999 -2.7056,-5.4112 -2.7056,5.4112 h 5.4112 m 1.2944,0.8 h -8 l 4,-8 4,8"
       fill-rule="nonzero"
       vector-effect="none"
       id="path5"
       style="fill:#000000;fill-opacity:1;stroke:none;stroke-width:0.8;stroke-linecap:square;stroke-linejoin:bevel;stroke-opacity:0"
       clip-path="url(#clipPath35)" />
    <path
       d="m 6.334641,8.537429 v 19.92467 h 26.54726 V 8.537429 Z"
       fill-rule="nonzero"
       vector-effect="none"
       id="path13"
       style="fill:none;stroke:#44805c;stroke-width:1.5;stroke-linecap:butt;stroke-linejoin:miter;stroke-miterlimit:4;stroke-opacity:1"
       clip-path="url(#clipPath36)" />
    <path
       d="m 30.203001,28.499899 v 12"
       fill-rule="nonzero"
       vector-effect="none"
       id="path15"
       style="fill:none;stroke:#44805c;stroke-width:1.5;stroke-linecap:butt;stroke-linejoin:miter;stroke-miterlimit:4;stroke-opacity:1"
       clip-path="url(#clipPath42)" />
    <path
       d="m 19.611801,15.369799 v 10.2425"
       fill-rule="nonzero"
       vector-effect="none"
       id="path17"
       style="fill:none;stroke:#44805c;stroke-width:1.5;stroke-linecap:butt;stroke-linejoin:miter;stroke-miterlimit:4;stroke-opacity:1"
       clip-path="url(#clipPath34)" />
    <path
       d="m 29.566101,19.924699 -9.9543,-8.5435 -9.9544,8.5435"
       fill-rule="nonzero"
       vector-effect="none"
       id="path19"
       style="fill:none;stroke:#44805c;stroke-width:1.5;stroke-linecap:butt;stroke-linejoin:miter;stroke-miterlimit:4;stroke-opacity:1"
       clip-path="url(#clipPath32)" />
    <path
       d="m 14.300901,19.924699 5.3109,-4.5549 5.3108,4.5549"
       fill-rule="nonzero"
       vector-effect="none"
       id="path21"
       style="fill:none;stroke:#44805c;stroke-width:1.5;stroke-linecap:butt;stroke-linejoin:miter;stroke-miterlimit:4;stroke-opacity:1"
       clip-path="url(#clipPath1)" />
    <path
       d="m 10.203001,28.499899 v 12"
       fill-rule="nonzero"
       vector-effect="none"
       id="path23"
       style="fill:none;stroke:#a06c70;stroke-width:1.5;stroke-linecap:butt;stroke-linejoin:miter;stroke-miterlimit:4;stroke-opacity:1"
       clip-path="url(#clipPath39)" />
    <path
       d="m 20.203001,8.499899 v -8"
       fill-rule="nonzero"
       vector-effect="none"
       id="path25"
       style="fill:none;stroke:#44805c;stroke-width:1.5;stroke-linecap:butt;stroke-linejoin:miter;stroke-miterlimit:4;stroke-opacity:1"
       clip-path="url(#clipPath37)" />
    <path
       d="m 17.303101,6.974999 h -5.725 V 4.437503 c 0,-0.516672 0.05208,-0.906256 0.156248,-1.168752 0.104168,-0.262504 0.285416,-0.475 0.543752,-0.637504 0.258336,-0.162496 0.545832,-0.243744 0.862504,-0.243744 0.408328,0 0.75,0.133328 1.024992,0.4 0.275008,0.266664 0.454168,0.670832 0.537504,1.212496 0.09166,-0.2 0.183336,-0.35 0.275,-0.45 0.208336,-0.225 0.462504,-0.433336 0.762504,-0.625 l 1.562496,-1 v 0.95 l -1.187504,0.762504 c -0.35,0.216664 -0.614576,0.397912 -0.793744,0.543744 -0.179168,0.145832 -0.306256,0.275 -0.381248,0.387504 -0.07501,0.112496 -0.125008,0.22708 -0.15,0.343744 -0.01667,0.083336 -0.02501,0.225008 -0.02501,0.425008 v 0.874992 h 2.537504 v 0.762504 m -3.2,-0.762504 V 4.587503 c 0,-0.35 -0.03542,-0.62292 -0.106248,-0.818752 -0.07083,-0.195832 -0.185416,-0.343752 -0.343752,-0.443752 -0.158336,-0.1 -0.329168,-0.15 -0.512496,-0.15 -0.275008,0 -0.5,0.09792 -0.675008,0.293752 -0.174992,0.195832 -0.262496,0.506248 -0.262496,0.931248 v 1.812496 h 1.9"
       fill-rule="nonzero"
       vector-effect="none"
       id="path27"
       style="fill:#000000;fill-opacity:1;stroke:none;stroke-width:0.8;stroke-linecap:square;stroke-linejoin:bevel;stroke-opacity:0"
       clip-path="url(#clipPath40)" />
    <path
       d="m 5.465597,37.637499 -0.062496,-0.7125 c 0.283336,-0.03334 0.516664,-0.112504 0.7,-0.237496 0.183336,-0.125008 0.331248,-0.316672 0.4437504,-0.575008 0.1124992,-0.258328 0.1687496,-0.55 0.1687496,-0.874992 0,-0.291672 -0.041666,-0.54792 -0.125,-0.768752 -0.083334,-0.220832 -0.199996,-0.385416 -0.349996,-0.493752 -0.15,-0.108336 -0.312504,-0.162504 -0.487504,-0.162504 -0.183336,0 -0.341664,0.05209 -0.475,0.156256 -0.133336,0.104168 -0.245832,0.27708 -0.337496,0.518752 -0.058336,0.15 -0.152088,0.487496 -0.281256,1.012496 -0.129168,0.525 -0.247912,0.895832 -0.356248,1.112496 -0.141664,0.275008 -0.318752,0.479168 -0.531248,0.612504 -0.212504,0.133334 -0.452088,0.2 -0.718752,0.2 -0.283336,0 -0.55208,-0.08333 -0.806248,-0.25 -0.254168,-0.166664 -0.445832,-0.406248 -0.575,-0.718752 -0.129168,-0.312496 -0.193752,-0.664584 -0.193752,-1.056248 0,-0.416664 0.068752,-0.787504 0.206248,-1.112496 0.137504,-0.325008 0.339584,-0.575008 0.606256,-0.75 0.266664,-0.175008 0.566664,-0.27084 0.9,-0.287504 l 0.05,0.725 c -0.358336,0.04166 -0.631256,0.175 -0.818752,0.4 -0.187504,0.225 -0.281248,0.558336 -0.281248,1 0,0.458336 0.085416,0.791664 0.256248,1 0.170832,0.208336 0.372912,0.312504 0.606248,0.312504 0.208336,0 0.379168,-0.07501 0.512496,-0.225008 0.133336,-0.141664 0.268752,-0.520832 0.406256,-1.137496 0.137496,-0.616664 0.260416,-1.037496 0.368752,-1.262504 0.15,-0.333328 0.343744,-0.57916 0.581248,-0.737496 0.237496,-0.158336 0.510416,-0.237496 0.818752,-0.237496 0.3,0 0.585416,0.08542 0.8562464,0.256248 0.2708328,0.170832 0.4812496,0.420832 0.6312496,0.75 0.15,0.329168 0.225,0.697912 0.225,1.106248 0,0.516664 -0.075,0.95 -0.225,1.3 -0.15,0.35 -0.3770832,0.625 -0.681248,0.825 -0.304168,0.2 -0.64792,0.304166 -1.031256,0.3125 z"
       fill-rule="nonzero"
       vector-effect="none"
       id="path29"
       style="fill:#000000;fill-opacity:1;stroke:none;stroke-width:0.8;stroke-linecap:square;stroke-linejoin:bevel;stroke-opacity:0"
       clip-path="url(#clipPath20)" />
    <path
       d="m 25.290605,33.299999 0.2,-0.762496 c 0.616664,0.158328 1.089579,0.443744 1.418746,0.856248 0.329167,0.412496 0.49375,0.918744 0.49375,1.518744 0,0.616672 -0.127083,1.118752 -0.38125,1.506256 -0.254167,0.387496 -0.61875,0.681248 -1.09375,0.881248 -0.475,0.2 -0.987496,0.3 -1.537496,0.3 -0.591672,0 -1.110424,-0.114583 -1.556256,-0.34375 -0.445832,-0.22917 -0.783328,-0.55417 -1.012496,-0.975002 -0.229168,-0.420832 -0.343752,-0.881248 -0.343752,-1.381248 0,-0.575 0.145832,-1.058336 0.437496,-1.45 0.291672,-0.391664 0.7,-0.662496 1.225008,-0.812496 l 0.187496,0.75 c -0.416664,0.133328 -0.720832,0.324992 -0.912504,0.574992 -0.191664,0.25 -0.287496,0.566672 -0.287496,0.95 0,0.441672 0.106248,0.810424 0.318752,1.106256 0.212496,0.295832 0.495832,0.504168 0.85,0.625 0.354168,0.120832 0.718744,0.181248 1.093752,0.181248 0.491664,0 0.918744,-0.07083 1.281248,-0.212504 0.362496,-0.141664 0.633328,-0.362496 0.812496,-0.662496 0.179169,-0.3 0.268752,-0.625 0.268752,-0.975 0,-0.425 -0.122917,-0.785416 -0.368752,-1.081248 -0.245832,-0.295832 -0.610416,-0.493752 -1.093744,-0.593752 z"
       fill-rule="nonzero"
       vector-effect="none"
       id="path31"
       style="fill:#000000;fill-opacity:1;stroke:none;stroke-width:0.8;stroke-linecap:square;stroke-linejoin:bevel;stroke-opacity:0"
       clip-path="url(#clipPath38)" />
  </g>
  <!--generated on windows @ 2026-04-07 21:41:19 Mitteleuropäische Sommerzeit-->
</svg>
