<?xml version="1.0" encoding="UTF-8" standalone="no"?>
<svg
   width="100"
   height="100"
   viewBox="0 0 100 100"
   version="1.1"
   id="svg70"
   sodipodi:docname="Ideal_Force_sensor.svg"
   inkscape:version="1.4.3 (0d15f75, 2025-12-25)"
   xmlns:inkscape="http://www.inkscape.org/namespaces/inkscape"
   xmlns:sodipodi="http://sodipodi.sourceforge.net/DTD/sodipodi-0.dtd"
   xmlns="http://www.w3.org/2000/svg"
   xmlns:svg="http://www.w3.org/2000/svg">
  <defs
     id="defs1" />
  <sodipodi:namedview
     id="namedview70"
     pagecolor="#ffffff"
     bordercolor="#000000"
     borderopacity="0.25"
     inkscape:showpageshadow="2"
     inkscape:pageopacity="0.0"
     inkscape:pagecheckerboard="0"
     inkscape:deskcolor="#d1d1d1"
     inkscape:document-units="mm"
     showgrid="false"
     inkscape:zoom="4.3137256"
     inkscape:cx="67.111362"
     inkscape:cy="44.393181"
     inkscape:window-width="2125"
     inkscape:window-height="1404"
     inkscape:window-x="3240"
     inkscape:window-y="677"
     inkscape:window-maximized="0"
     inkscape:current-layer="svg70">
    <inkscape:page
       x="0"
       y="0"
       width="100"
       height="100"
       id="page2"
       margin="0"
       bleed="0" />
  </sodipodi:namedview>
  <g
     id="g1"
     transform="translate(-0.1013185,29.283975)">
    <path
       d="m 47.746817,17.90905 h -10.52636 v 8.0702"
       fill-rule="nonzero"
       vector-effect="none"
       id="path7"
       style="fill:none;stroke:#44805c;stroke-width:1.5;stroke-linecap:butt;stroke-linejoin:miter;stroke-miterlimit:20;stroke-opacity:1" />
    <path
       d="m 40.729217,25.97925 1.4035,-5.2632 3.8597,10.5263 3.5087,-10.5263 3.8597,10.5263 3.1579,-10.5263 1.7544,5.2632"
       fill-rule="nonzero"
       vector-effect="none"
       id="path9"
       style="fill:none;stroke:#44805c;stroke-width:1.5;stroke-linecap:butt;stroke-linejoin:miter;stroke-miterlimit:20;stroke-opacity:1" />
    <path
       d="m 58.273117,25.97925 h 8.421"
       fill-rule="nonzero"
       vector-effect="none"
       id="path11"
       style="fill:none;stroke:#44805c;stroke-width:1.5;stroke-linecap:butt;stroke-linejoin:miter;stroke-miterlimit:20;stroke-opacity:1" />
    <path
       d="m 61.431017,25.97925 v -15.7895 h -13.6842 l 0.3508,3.1579"
       fill-rule="nonzero"
       vector-effect="none"
       id="path13"
       style="fill:none;stroke:#44805c;stroke-width:1.5;stroke-linecap:butt;stroke-linejoin:miter;stroke-miterlimit:20;stroke-opacity:1" />
    <path
       d="m 33.360807,25.97925 h 7.36841"
       fill-rule="nonzero"
       vector-effect="none"
       id="path15"
       style="fill:none;stroke:#44805c;stroke-width:1.5;stroke-linecap:butt;stroke-linejoin:miter;stroke-miterlimit:20;stroke-opacity:1" />
    <path
       d="m 41.080226,16.856449 h 14.03514 v 1.754392 h -14.03514 z"
       fill-rule="nonzero"
       vector-effect="none"
       id="path17"
       style="fill:#44805c;fill-opacity:1;stroke:none;stroke-width:0.129955;stroke-linecap:square;stroke-linejoin:bevel;stroke-opacity:0" />
    <path
       d="m 41.080117,16.85645 h 14.0351 v 1.7543 h -14.0351 z"
       fill-rule="nonzero"
       vector-effect="none"
       id="path19"
       style="fill:none;stroke:#44805c;stroke-width:1.5;stroke-linecap:butt;stroke-linejoin:miter;stroke-miterlimit:20;stroke-opacity:1" />
    <path
       d="m 35.817049,25.97929 1.403514,-3.508785 1.754392,3.508785 z"
       fill-rule="nonzero"
       vector-effect="none"
       id="path21"
       style="fill:#44805c;fill-opacity:1;stroke:none;stroke-width:0.129955;stroke-linecap:square;stroke-linejoin:bevel;stroke-opacity:0" />
    <path
       d="m 35.816957,25.97925 1.4035,-3.5088 1.75439,3.5088 z"
       fill-rule="nonzero"
       vector-effect="none"
       id="path23"
       style="fill:none;stroke:#44805c;stroke-width:1.5;stroke-linecap:butt;stroke-linejoin:miter;stroke-miterlimit:20;stroke-opacity:1" />
    <path
       d="M 47.746918,17.207327 46.343404,11.94415 h 2.807028 l -1.403514,4.912299 z"
       fill-rule="nonzero"
       vector-effect="none"
       id="path25"
       style="fill:#44805c;fill-opacity:1;stroke:none;stroke-width:0.129955;stroke-linecap:square;stroke-linejoin:bevel;stroke-opacity:0" />
    <path
       d="m 47.746817,17.20725 -1.4035,-5.2631 h 2.807 l -1.4035,4.9123 z"
       fill-rule="nonzero"
       vector-effect="none"
       id="path27"
       style="fill:none;stroke:#44805c;stroke-width:1.5;stroke-linecap:butt;stroke-linejoin:miter;stroke-miterlimit:20;stroke-opacity:1" />
    <path
       d="m 60.027665,25.97929 1.403514,-3.508785 1.754393,3.508785 z"
       fill-rule="nonzero"
       vector-effect="none"
       id="path29"
       style="fill:#44805c;fill-opacity:1;stroke:none;stroke-width:0.129955;stroke-linecap:square;stroke-linejoin:bevel;stroke-opacity:0" />
    <path
       d="m 60.027517,25.97925 1.4035,-3.5088 1.7544,3.5088 z"
       fill-rule="nonzero"
       vector-effect="none"
       id="path31"
       style="fill:none;stroke:#44805c;stroke-width:1.5;stroke-linecap:butt;stroke-linejoin:miter;stroke-miterlimit:20;stroke-opacity:1" />
    <path
       d="m 30.202917,0.75 h 40 v 39.93205 h -40 z"
       fill-rule="nonzero"
       vector-effect="none"
       id="path33"
       style="fill:none;stroke:#44805c;stroke-width:1.5;stroke-linecap:butt;stroke-linejoin:miter;stroke-miterlimit:20;stroke-opacity:1" />
    <path
       d="m 32.827917,23.51605 v -5.725 h 2.537496 c 0.516672,0 0.906256,0.05208 1.168752,0.156248 0.262504,0.104168 0.475,0.285416 0.637504,0.543752 0.162496,0.258336 0.243744,0.545832 0.243744,0.862504 0,0.408328 -0.133328,0.75 -0.4,1.024992 -0.266664,0.275008 -0.670832,0.454168 -1.212496,0.537504 0.2,0.09166 0.35,0.183336 0.45,0.275 0.225,0.208336 0.433336,0.462504 0.625,0.762504 l 1,1.562496 h -0.95 l -0.762504,-1.187504 c -0.216664,-0.35 -0.397912,-0.614576 -0.543744,-0.793744 -0.145832,-0.179168 -0.275,-0.306256 -0.387504,-0.381248 -0.112496,-0.07501 -0.22708,-0.125008 -0.343744,-0.15 -0.08334,-0.01667 -0.225008,-0.02501 -0.425008,-0.02501 h -0.874992 v 2.537504 h -0.762504 m 0.762504,-3.2 h 1.624992 c 0.35,0 0.62292,-0.03542 0.818752,-0.106248 0.195832,-0.07083 0.343752,-0.185416 0.443752,-0.343752 0.1,-0.158336 0.15,-0.329168 0.15,-0.512496 0,-0.275008 -0.09792,-0.5 -0.293752,-0.675008 -0.195832,-0.174992 -0.506248,-0.262496 -0.931248,-0.262496 h -1.812496 v 1.9"
       fill-rule="nonzero"
       vector-effect="none"
       id="path35"
       style="fill:#000000;fill-opacity:1;stroke:none;stroke-width:0.8;stroke-linecap:square;stroke-linejoin:bevel;stroke-opacity:0" />
    <path
       d="m 67.302917,11.503554 0.762496,0.2 c -0.158328,0.616664 -0.443744,1.089579 -0.856248,1.418746 -0.412496,0.329167 -0.918744,0.49375 -1.518744,0.49375 -0.616672,0 -1.118752,-0.127083 -1.506256,-0.38125 -0.387496,-0.254167 -0.681248,-0.61875 -0.881248,-1.09375 -0.2,-0.475 -0.3,-0.987496 -0.3,-1.537496 0,-0.591672 0.114583,-1.110424 0.34375,-1.556256 0.22917,-0.445832 0.55417,-0.783328 0.975002,-1.012496 0.420832,-0.229168 0.881248,-0.343752 1.381248,-0.343752 0.575,0 1.058336,0.145832 1.45,0.437496 0.391664,0.291672 0.662496,0.7 0.812496,1.225008 l -0.75,0.187496 C 67.082085,9.124386 66.890421,8.820218 66.640421,8.628546 c -0.25,-0.191664 -0.566672,-0.287496 -0.95,-0.287496 -0.441672,0 -0.810424,0.106248 -1.106256,0.318752 -0.295832,0.212496 -0.504168,0.495832 -0.625,0.85 -0.120832,0.354168 -0.181248,0.718744 -0.181248,1.093752 0,0.491664 0.07083,0.918744 0.212504,1.281248 0.141664,0.362496 0.362496,0.633328 0.662496,0.812496 0.3,0.179169 0.625,0.268752 0.975,0.268752 0.425,0 0.785416,-0.122917 1.081248,-0.368752 0.295832,-0.245832 0.493752,-0.610416 0.593752,-1.093744 z"
       fill-rule="nonzero"
       vector-effect="none"
       id="path37"
       style="fill:#000000;fill-opacity:1;stroke:none;stroke-width:0.8;stroke-linecap:square;stroke-linejoin:bevel;stroke-opacity:0" />
    <path
       d="m 64.065417,33.51605 v -5.725 h 3.8625 v 0.675 h -3.112504 v 1.775 h 2.687504 v 0.675 h -2.687504 v 2.6 z"
       fill-rule="nonzero"
       vector-effect="none"
       id="path39"
       style="fill:#000000;fill-opacity:1;stroke:none;stroke-width:0.8;stroke-linecap:square;stroke-linejoin:bevel;stroke-opacity:0" />
    <path
       d="m 99.308417,30.71605 -6.7056,3.3528 v -6.7056 z"
       fill-rule="evenodd"
       vector-effect="none"
       id="path55"
       style="fill:#ffffff;fill-opacity:1;stroke:none;stroke-width:0.8;stroke-linecap:square;stroke-linejoin:bevel;stroke-opacity:0" />
    <path
       d="m 93.002817,28.01045 5.4112,2.7056 -5.4112,2.7056 v -5.4112 m -0.8,-1.2944 v 8 l 8.000003,-4 -8.000003,-4"
       fill-rule="nonzero"
       vector-effect="none"
       id="path57"
       style="fill:#000000;fill-opacity:1;stroke:none;stroke-width:0.8;stroke-linecap:square;stroke-linejoin:bevel;stroke-opacity:0" />
    <path
       d="M 69.999917,11.21595 H 99.705034"
       fill-rule="evenodd"
       vector-effect="none"
       id="path65"
       style="fill:none;stroke:#44805c;stroke-width:1.44521;stroke-linecap:butt;stroke-linejoin:miter;stroke-miterlimit:2;stroke-opacity:1" />
    <path
       d="m 30.499817,21.21595 h -30.5"
       fill-rule="evenodd"
       vector-effect="none"
       id="path67"
       style="fill:none;stroke:#44805c;stroke-width:1.46442;stroke-linecap:butt;stroke-linejoin:miter;stroke-miterlimit:2;stroke-opacity:1" />
    <path
       d="m 69.999917,31.21595 h 23"
       fill-rule="evenodd"
       vector-effect="none"
       id="path69"
       style="fill:none;stroke:#a06c70;stroke-width:1.5;stroke-linecap:butt;stroke-linejoin:miter;stroke-miterlimit:2;stroke-opacity:1" />
  </g>
  <!--generated on windows @ 2026-04-07 21:41:18 Mitteleuropäische Sommerzeit-->
</svg>
