<?xml version="1.0" encoding="UTF-8" standalone="no"?>
<svg
   width="100"
   height="100"
   viewBox="0 0 100 100"
   version="1.1"
   id="svg38"
   sodipodi:docname="Inductor_Icon_new.svg"
   inkscape:version="1.4.3 (0d15f75, 2025-12-25)"
   xmlns:inkscape="http://www.inkscape.org/namespaces/inkscape"
   xmlns:sodipodi="http://sodipodi.sourceforge.net/DTD/sodipodi-0.dtd"
   xmlns="http://www.w3.org/2000/svg"
   xmlns:svg="http://www.w3.org/2000/svg">
  <defs
     id="defs1" />
  <sodipodi:namedview
     id="namedview38"
     pagecolor="#ffffff"
     bordercolor="#000000"
     borderopacity="0.25"
     inkscape:showpageshadow="2"
     inkscape:pageopacity="0.0"
     inkscape:pagecheckerboard="0"
     inkscape:deskcolor="#d1d1d1"
     inkscape:document-units="mm"
     showgrid="false"
     inkscape:zoom="7.7781737"
     inkscape:cx="36.191015"
     inkscape:cy="36.57671"
     inkscape:window-width="2227"
     inkscape:window-height="1564"
     inkscape:window-x="2872"
     inkscape:window-y="601"
     inkscape:window-maximized="0"
     inkscape:current-layer="svg38" />
  <g
     id="g1"
     transform="matrix(2.5,0,0,2.5,-1.2495125,27.828245)">
    <path
       d="m 6.499805,12.2999 h -6"
       fill-rule="nonzero"
       vector-effect="none"
       id="path7"
       style="fill:none;stroke:#3369c9;stroke-width:1.5;stroke-linecap:butt;stroke-linejoin:miter;stroke-miterlimit:20;stroke-opacity:1" />
    <path
       d="m 33.499805,12.2999 h 7"
       fill-rule="nonzero"
       vector-effect="none"
       id="path9"
       style="fill:none;stroke:#3369c9;stroke-width:1.5;stroke-linecap:butt;stroke-linejoin:miter;stroke-miterlimit:20;stroke-opacity:1" />
    <path
       d="m 6.153755,11.8 c -0.1099,-0.911 0.13544,-1.8277 0.69616,-2.6013 0.56074,-0.7736 1.40391,-1.3585 2.39259,-1.6599 0.9886,-0.3013 2.0647,-0.3013 3.0533,0 0.9886,0.3014 1.8318,0.8863 2.3926,1.6599 0.5607,0.7736 0.806,1.6903 0.6961,2.6013"
       fill-rule="nonzero"
       vector-effect="none"
       id="path11"
       style="fill:none;stroke:#3369c9;stroke-width:1.5;stroke-linecap:butt;stroke-linejoin:miter;stroke-miterlimit:4;stroke-opacity:1" />
    <path
       d="m 15.384505,11.8 c -0.1099,-0.911 0.1355,-1.8277 0.6962,-2.6013 0.5607,-0.7736 1.4039,-1.3585 2.3925,-1.6599 0.9886,-0.3013 2.0648,-0.3013 3.0534,0 0.9886,0.3014 1.8317,0.8863 2.3926,1.6599 0.5607,0.7736 0.8061,1.6903 0.6961,2.6013"
       fill-rule="nonzero"
       vector-effect="none"
       id="path13"
       style="fill:none;stroke:#3369c9;stroke-width:1.5;stroke-linecap:butt;stroke-linejoin:miter;stroke-miterlimit:4;stroke-opacity:1" />
    <path
       d="m 24.615305,11.8 c -0.11,-0.911 0.1354,-1.8277 0.6961,-2.6013 0.5609,-0.7736 1.404,-1.3585 2.3926,-1.6599 0.9886,-0.3013 2.0647,-0.3013 3.0534,0 0.9886,0.3014 1.8317,0.8863 2.3925,1.6599 0.5607,0.7736 0.8061,1.6903 0.6962,2.6013"
       fill-rule="nonzero"
       vector-effect="none"
       id="path15"
       style="fill:none;stroke:#3369c9;stroke-width:1.5;stroke-linecap:butt;stroke-linejoin:miter;stroke-miterlimit:4;stroke-opacity:1" />
    <path
       d="M 3.999905,8.475 V 6.9 h -1.55 V 6.25 h 1.55 V 4.687504 H 4.662401 V 6.25 H 6.224905 V 6.9 H 4.662401 v 1.575 z"
       fill-rule="nonzero"
       vector-effect="none"
       id="path17"
       style="fill:#000000;fill-opacity:1;stroke:none;stroke-width:0.8;stroke-linecap:square;stroke-linejoin:bevel;stroke-opacity:0" />
    <path
       d="m 35.849905,7.675 v -0.7 h 2.162496 v 0.7 z"
       fill-rule="nonzero"
       vector-effect="none"
       id="path19"
       style="fill:#000000;fill-opacity:1;stroke:none;stroke-width:0.8;stroke-linecap:square;stroke-linejoin:bevel;stroke-opacity:0" />
  </g>
  <!--generated on windows @ 2026-04-07 04:35:56 Mitteleuropäische Sommerzeit-->
</svg>
