<?xml version="1.0" encoding="UTF-8" standalone="no"?>
<svg
   width="100"
   height="100"
   viewBox="0 0 100 100"
   version="1.1"
   id="svg34"
   sodipodi:docname="Spring_Icon_new6.svg"
   inkscape:version="1.4.3 (0d15f75, 2025-12-25)"
   xmlns:inkscape="http://www.inkscape.org/namespaces/inkscape"
   xmlns:sodipodi="http://sodipodi.sourceforge.net/DTD/sodipodi-0.dtd"
   xmlns="http://www.w3.org/2000/svg"
   xmlns:svg="http://www.w3.org/2000/svg">
  <defs
     id="defs34" />
  <sodipodi:namedview
     inkscape:zoom="5.4594765"
     inkscape:cx="-2.0148452"
     inkscape:cy="57.056753"
     inkscape:window-width="2166"
     inkscape:window-height="1328"
     inkscape:window-x="2626"
     inkscape:window-y="848"
     inkscape:window-maximized="0"
     inkscape:current-layer="svg34"
     id="namedview1"
     pagecolor="#ffffff"
     bordercolor="#000000"
     borderopacity="0.25"
     inkscape:showpageshadow="2"
     inkscape:pageopacity="0.0"
     inkscape:pagecheckerboard="0"
     inkscape:deskcolor="#d1d1d1" />
  <g
     id="g1"
     transform="matrix(2,0,0,2,3.460075e-7,-48.267488)">
    <path
       d="M -3.460075e-7,50.435143 H 11.25 l 0.15125,-0.626866"
       fill-rule="nonzero"
       vector-effect="none"
       id="path7"
       style="fill:none;stroke:#44805c;stroke-width:1.79155;stroke-linecap:butt;stroke-linejoin:miter;stroke-miterlimit:20;stroke-opacity:1" />
    <path
       d="m 11.40125,49.808277 2.4445,-5.57127 4.444375,11.717709 4.470625,-11.717709 4.23525,11.525986 4.4445,-11.525986 2.23525,5.57127 2.22225,5.762992 2.23525,-5.762992"
       fill-rule="evenodd"
       vector-effect="none"
       id="path9"
       fill="none"
       style="stroke:#44805c;stroke-width:1.79155;stroke-linecap:butt;stroke-linejoin:miter;stroke-miterlimit:20;stroke-opacity:1" />
    <path
       d="M 38.75,50.435143 H 50"
       fill-rule="nonzero"
       vector-effect="none"
       id="path11"
       style="fill:none;stroke:#44805c;stroke-width:1.79155;stroke-linecap:butt;stroke-linejoin:miter;stroke-miterlimit:20;stroke-opacity:1" />
    <path
       d="m 1.4062497,46.44091 v -6.533423 h 3.17187 c 0.6458402,0 1.1328199,0.05943 1.4609398,0.178312 0.3281299,0.118877 0.59375,0.325719 0.7968803,0.620534 0.2031197,0.294816 0.3046798,0.622909 0.3046798,0.984298 0,0.465988 -0.1666599,0.855907 -0.5,1.16973 -0.3333299,0.313842 -0.8385401,0.518301 -1.5156198,0.613405 0.2499998,0.104608 0.4374997,0.209225 0.5624998,0.313833 0.2812499,0.237755 0.5416699,0.527813 0.78125,0.870176 L 7.7187498,46.44091 H 6.5312499 L 5.5781198,45.08572 C 5.3072896,44.686296 5.0807299,44.38436 4.8984397,44.179892 c -0.18229,-0.204469 -0.34375,-0.349503 -0.48438,-0.435084 -0.14062,-0.0856 -0.28385,-0.142661 -0.42968,-0.171182 -0.10417,-0.01903 -0.28126,-0.02854 -0.53126,-0.02854 h -1.09374 v 2.895823 h -0.95313 m 0.95313,-3.65187 h 2.03124 c 0.4375,0 0.77865,-0.04042 1.0234402,-0.121251 0.2447896,-0.08083 0.42969,-0.211598 0.5546896,-0.392293 0.1250002,-0.180694 0.1875,-0.375649 0.1875,-0.584865 0,-0.313842 -0.1223996,-0.570605 -0.3671897,-0.770325 C 5.5442696,40.720603 5.1562495,40.620743 4.6249997,40.620743 h -2.26562 v 2.168297"
       fill-rule="nonzero"
       vector-effect="none"
       id="path13"
       style="fill:#000000;fill-opacity:1;stroke:none;stroke-width:0.955492;stroke-linecap:square;stroke-linejoin:bevel;stroke-opacity:0" />
    <path
       d="m 45.25,44.144231 0.95312,0.228242 c -0.19791,0.703743 -0.55468,1.243438 -1.07031,1.619086 -0.51562,0.375648 -1.14843,0.563472 -1.89843,0.563472 -0.77084,0 -1.39844,-0.145028 -1.88282,-0.435086 C 40.86719,45.829887 40.5,45.413822 40.25,44.871747 40,44.329673 39.875,43.744808 39.875,43.117143 c 0,-0.675222 0.143229,-1.267227 0.429687,-1.776014 0.286463,-0.508788 0.692713,-0.893941 1.218753,-1.15547 0.52604,-0.261529 1.10156,-0.392293 1.72656,-0.392293 0.71875,0 1.32292,0.166425 1.8125,0.499275 0.48958,0.332858 0.82812,0.798846 1.01562,1.39799 l -0.9375,0.213972 c -0.16666,-0.475501 -0.40624,-0.82262 -0.71874,-1.041358 -0.3125,-0.218729 -0.70834,-0.328093 -1.1875,-0.328093 -0.55209,0 -1.01303,0.121251 -1.38282,0.363763 -0.36979,0.242502 -0.63021,0.565848 -0.78125,0.970028 -0.15104,0.40418 -0.22656,0.820237 -0.22656,1.2482 0,0.561091 0.08854,1.048479 0.26563,1.462172 0.17708,0.413684 0.45312,0.72276 0.82812,0.927228 0.375,0.204469 0.78125,0.306702 1.21875,0.306702 0.53125,0 0.98177,-0.140274 1.35156,-0.420823 C 44.8776,45.111876 45.125,44.695809 45.25,44.144231 Z"
       fill-rule="nonzero"
       vector-effect="none"
       id="path15"
       style="fill:#000000;fill-opacity:1;stroke:none;stroke-width:0.955492;stroke-linecap:square;stroke-linejoin:bevel;stroke-opacity:0" />
  </g>
  <!--generated on windows @ 2026-04-07 04:26:43 Mitteleuropäische Sommerzeit-->
</svg>
