<?xml version="1.0" encoding="UTF-8" standalone="no"?>
<svg
   width="100"
   height="100"
   viewBox="0 0 100 100"
   version="1.1"
   id="svg54"
   sodipodi:docname="Switch_Icon_new.svg"
   inkscape:version="1.4.3 (0d15f75, 2025-12-25)"
   xmlns:inkscape="http://www.inkscape.org/namespaces/inkscape"
   xmlns:sodipodi="http://sodipodi.sourceforge.net/DTD/sodipodi-0.dtd"
   xmlns="http://www.w3.org/2000/svg"
   xmlns:svg="http://www.w3.org/2000/svg">
  <defs
     id="defs1">
    <clipPath
       clipPathUnits="userSpaceOnUse"
       id="clipPath2">
      <path
         d="m 27.953075,48 v -8 h -8 v 8 z"
         id="path2"
         style="stroke-width:0.8" />
    </clipPath>
    <clipPath
       clipPathUnits="userSpaceOnUse"
       id="clipPath3">
      <path
         d="M 16.952975,-1.0003e-4 V 39.9999 h 31 V -1.0003e-4 Z"
         id="path4"
         style="stroke-width:1" />
    </clipPath>
    <clipPath
       clipPathUnits="userSpaceOnUse"
       id="clipPath4">
      <path
         d="M 16.730915,-3.5005e-5 V 39.999925 H 48.39755 V -3.5005e-5 Z"
         id="path6"
         style="stroke-width:0.185185" />
    </clipPath>
    <clipPath
       clipPathUnits="userSpaceOnUse"
       id="clipPath6">
      <path
         d="M 16.952975,-1.0003e-4 V 39.9999 h 31 V -1.0003e-4 Z"
         id="path8"
         style="stroke-width:1" />
    </clipPath>
    <clipPath
       clipPathUnits="userSpaceOnUse"
       id="clipPath8">
      <path
         d="M 16.952975,-1.0003e-4 V 39.9999 h 31 V -1.0003e-4 Z"
         id="path16"
         style="stroke-width:1" />
    </clipPath>
    <clipPath
       clipPathUnits="userSpaceOnUse"
       id="clipPath16">
      <path
         d="M 16.753075,40.4 V 0.39999998 h 32 V 40.4 Z"
         id="path22"
         style="stroke-width:0.8" />
    </clipPath>
    <clipPath
       clipPathUnits="userSpaceOnUse"
       id="clipPath22">
      <path
         d="M 16.952975,-1.0003e-4 V 39.9999 h 31 V -1.0003e-4 Z"
         id="path24"
         style="stroke-width:1" />
    </clipPath>
    <clipPath
       clipPathUnits="userSpaceOnUse"
       id="clipPath24">
      <path
         d="M 16.952975,-1.0003e-4 V 39.9999 h 31 V -1.0003e-4 Z"
         id="path26"
         style="stroke-width:1" />
    </clipPath>
    <clipPath
       clipPathUnits="userSpaceOnUse"
       id="clipPath26">
      <path
         d="M 16.730915,-3.5005e-5 V 39.999925 H 48.39755 V -3.5005e-5 Z"
         id="path28"
         style="stroke-width:0.185185" />
    </clipPath>
    <clipPath
       clipPathUnits="userSpaceOnUse"
       id="clipPath28">
      <path
         d="M 16.952975,-1.0003e-4 V 39.9999 h 31 V -1.0003e-4 Z"
         id="path30"
         style="stroke-width:1" />
    </clipPath>
  </defs>
  <sodipodi:namedview
     id="namedview54"
     pagecolor="#ffffff"
     bordercolor="#000000"
     borderopacity="0.25"
     inkscape:showpageshadow="2"
     inkscape:pageopacity="0.0"
     inkscape:pagecheckerboard="0"
     inkscape:deskcolor="#d1d1d1"
     inkscape:document-units="mm"
     inkscape:zoom="7.3206355"
     inkscape:cx="56.210967"
     inkscape:cy="55.186466"
     inkscape:window-width="1998"
     inkscape:window-height="1499"
     inkscape:window-x="3108"
     inkscape:window-y="655"
     inkscape:window-maximized="0"
     inkscape:current-layer="svg54" />
  <g
     id="g30"
     transform="matrix(1.3114754,0,0,1.3114754,-5.7377347,3.75e-7)">
    <path
       d="m 26.658675,47.2 -2.7056,-5.4112 -2.7056,5.4112 h 5.4112 m 1.2944,0.8 h -8 l 4,-8 4,8"
       fill-rule="nonzero"
       vector-effect="none"
       id="path5"
       style="fill:#000000;fill-opacity:1;stroke:none;stroke-width:0.8;stroke-linecap:square;stroke-linejoin:bevel;stroke-opacity:0"
       clip-path="url(#clipPath2)" />
    <path
       d="m 33.953075,10 10,18.5"
       fill-rule="nonzero"
       vector-effect="none"
       id="path11"
       style="fill:none;stroke:#3369c9;stroke-width:1.5;stroke-linecap:butt;stroke-linejoin:miter;stroke-miterlimit:20;stroke-opacity:1"
       clip-path="url(#clipPath8)" />
    <path
       d="m 24.452975,40.4999 v -20 L 39.453075,20"
       fill-rule="nonzero"
       vector-effect="none"
       id="path13"
       style="fill:none;stroke:#a06c70;stroke-width:1.5;stroke-linecap:butt;stroke-linejoin:miter;stroke-miterlimit:20;stroke-opacity:1"
       clip-path="url(#clipPath22)" />
    <path
       d="m 33.953075,30 v 5 l 10.4999,0.4999 v 5"
       fill-rule="nonzero"
       vector-effect="none"
       id="path15"
       style="fill:none;stroke:#3369c9;stroke-width:1.5;stroke-linecap:butt;stroke-linejoin:miter;stroke-miterlimit:20;stroke-opacity:1"
       clip-path="url(#clipPath28)" />
    <path
       d="m 34.452975,10.4999 v -10"
       fill-rule="nonzero"
       vector-effect="none"
       id="path17"
       style="fill:none;stroke:#3369c9;stroke-width:1.5;stroke-linecap:butt;stroke-linejoin:miter;stroke-miterlimit:20;stroke-opacity:1"
       clip-path="url(#clipPath3)" />
    <path
       d="m 33.95312,31.411045 c 0.779258,0 1.41111,-0.631852 1.41111,-1.41111 0,-0.779258 -0.631852,-1.41111 -1.41111,-1.41111 -0.779258,0 -1.41111,0.631852 -1.41111,1.41111 0,0.779258 0.631852,1.41111 1.41111,1.41111 z"
       fill-rule="nonzero"
       vector-effect="none"
       id="path19"
       style="fill:#3369c9;fill-opacity:1;stroke:none;stroke-width:0.185185;stroke-linecap:square;stroke-linejoin:bevel;stroke-opacity:0"
       clip-path="url(#clipPath26)" />
    <path
       d="m 33.953075,31.4111 c 0.7793,0 1.4111,-0.6318 1.4111,-1.4111 0,-0.7793 -0.6318,-1.4111 -1.4111,-1.4111 -0.7793,0 -1.4111,0.6318 -1.4111,1.4111 0,0.7793 0.6318,1.4111 1.4111,1.4111 z"
       fill-rule="nonzero"
       vector-effect="none"
       id="path21"
       style="fill:none;stroke:#3369c9;stroke-width:1.5;stroke-linecap:butt;stroke-linejoin:miter;stroke-miterlimit:4;stroke-opacity:1"
       clip-path="url(#clipPath24)" />
    <path
       d="m 33.95312,11.411065 c 0.779258,0 1.41111,-0.631777 1.41111,-1.41111 0,-0.7793326 -0.631852,-1.4111097 -1.41111,-1.4111097 -0.779258,0 -1.41111,0.6317771 -1.41111,1.4111097 0,0.779333 0.631852,1.41111 1.41111,1.41111 z"
       fill-rule="nonzero"
       vector-effect="none"
       id="path23"
       style="fill:#3369c9;fill-opacity:1;stroke:none;stroke-width:0.185185;stroke-linecap:square;stroke-linejoin:bevel;stroke-opacity:0"
       clip-path="url(#clipPath4)" />
    <path
       d="m 33.953075,11.4111 c 0.7793,0 1.4111,-0.6318 1.4111,-1.4111 0,-0.7793 -0.6318,-1.41111 -1.4111,-1.41111 -0.7793,0 -1.4111,0.63181 -1.4111,1.41111 0,0.7793 0.6318,1.4111 1.4111,1.4111 z"
       fill-rule="nonzero"
       vector-effect="none"
       id="path25"
       style="fill:none;stroke:#3369c9;stroke-width:1.5;stroke-linecap:butt;stroke-linejoin:miter;stroke-miterlimit:4;stroke-opacity:1"
       clip-path="url(#clipPath6)" />
    <path
       d="m 21.553075,37.3875 h -5.725 V 35.225 c 0,-0.383336 0.01666,-0.675 0.05,-0.875 0.05,-0.283336 0.139584,-0.518752 0.268752,-0.706248 0.129168,-0.187504 0.312496,-0.339584 0.55,-0.456248 0.237496,-0.116672 0.497912,-0.175008 0.781248,-0.175008 0.491664,0 0.906248,0.154168 1.243752,0.462504 0.337496,0.308336 0.506248,0.866664 0.506248,1.675 v 1.475 h 2.325 v 0.7625 m -3,-0.7625 V 35.15 c 0,-0.491664 -0.09166,-0.841664 -0.275,-1.05 -0.183336,-0.208336 -0.441664,-0.312496 -0.775,-0.312496 -0.241664,0 -0.445832,0.06042 -0.612496,0.181248 C 16.723907,34.089584 16.611411,34.25 16.553075,34.45 c -0.03334,0.133336 -0.05,0.370832 -0.05,0.712496 V 36.625 h 2.05 m 1.162496,-4.587496 -0.0625,-0.712504 c 0.283336,-0.03334 0.516664,-0.112504 0.7,-0.237496 0.183336,-0.125008 0.331248,-0.316672 0.44375,-0.575008 0.1125,-0.258328 0.16875,-0.550016 0.16875,-0.874976 0,-0.29168 -0.04167,-0.54792 -0.125,-0.7688 -0.08333,-0.2208 -0.199996,-0.38536 -0.349996,-0.49368 -0.15,-0.1084 -0.312504,-0.16256 -0.487504,-0.16256 -0.183336,0 -0.341664,0.05208 -0.475,0.15624 -0.133336,0.10416 -0.245832,0.27712 -0.337496,0.5188 -0.05834,0.15 -0.152088,0.48752 -0.281256,1.01248 -0.129168,0.525 -0.247912,0.895832 -0.356248,1.112496 -0.141664,0.275008 -0.318752,0.479168 -0.531248,0.612504 -0.212504,0.133336 -0.452088,0.2 -0.718752,0.2 -0.283336,0 -0.55208,-0.08334 -0.806248,-0.25 -0.254168,-0.166664 -0.445832,-0.406248 -0.575,-0.718752 C 15.792659,30.543752 15.728075,30.191664 15.728075,29.8 c 0,-0.41664 0.06875,-0.78752 0.206248,-1.11248 0.137504,-0.32504 0.339584,-0.57504 0.606256,-0.75 0.266664,-0.17504 0.566664,-0.27088 0.9,-0.28752 l 0.05,0.72504 c -0.358336,0.0416 -0.631256,0.17496 -0.818752,0.4 -0.187504,0.22496 -0.281248,0.55832 -0.281248,1 0,0.458296 0.08542,0.791624 0.256248,0.99996 0.170832,0.208336 0.372912,0.312504 0.606248,0.312504 0.208336,0 0.379168,-0.07501 0.512496,-0.225008 0.133336,-0.141664 0.268752,-0.520832 0.406256,-1.137536 0.137496,-0.61664 0.260416,-1.03744 0.368752,-1.26248 0.15,-0.33328 0.343744,-0.57912 0.581248,-0.73752 0.237496,-0.15832 0.510416,-0.23744 0.818752,-0.23744 0.3,0 0.585416,0.08536 0.856246,0.25624 0.270833,0.1708 0.48125,0.4208 0.63125,0.75 0.15,0.32912 0.225,0.69792 0.225,1.10624 0,0.516664 -0.075,0.95 -0.225,1.3 -0.15,0.35 -0.377083,0.625 -0.681248,0.825 -0.304168,0.2 -0.64792,0.304168 -1.031256,0.312504"
       fill-rule="nonzero"
       vector-effect="none"
       id="path27"
       style="fill:#000000;fill-opacity:1;stroke:none;stroke-width:0.8;stroke-linecap:square;stroke-linejoin:bevel;stroke-opacity:0"
       clip-path="url(#clipPath16)" />
    <path
       d="m 14.249971,0 h 40 v 40 h -40 z"
       fill-rule="evenodd"
       vector-effect="none"
       id="path29"
       style="fill:none;stroke:none;stroke-width:1;stroke-linecap:square;stroke-linejoin:bevel;stroke-opacity:0" />
    <path
       d="M 24.749975,48.5 V 73 m 0,0 c 0,1.25 1.25,2.5 2.5,2.5 m 0,0 h 23.5"
       fill-rule="evenodd"
       vector-effect="none"
       id="path51"
       style="fill:none;stroke:#a06c70;stroke-width:1.5;stroke-linecap:butt;stroke-linejoin:miter;stroke-miterlimit:2;stroke-opacity:1" />
    <path
       d="M 44.749975,39.5 V 73 m 0,0 c 0,1.25 1.25,2.5 2.5,2.5 m 0,0 h 23.5001"
       fill-rule="evenodd"
       vector-effect="none"
       id="path53"
       style="fill:none;stroke:#3369c9;stroke-width:1.5;stroke-linecap:butt;stroke-linejoin:miter;stroke-miterlimit:2;stroke-opacity:1" />
  </g>
  <!--generated on windows @ 2026-04-07 04:35:56 Mitteleuropäische Sommerzeit-->
</svg>
