<?xml version="1.0" encoding="UTF-8" standalone="no"?>
<!-- Uploaded to: SVG Repo, www.svgrepo.com, Generator: SVG Repo Mixer Tools -->

<svg
   fill="#000000"
   width="100"
   height="100"
   viewBox="0 0 100 100"
   version="1.1"
   id="Layer_1"
   xml:space="preserve"
   sodipodi:docname="Wheel_black.svg"
   inkscape:version="1.4.3 (0d15f75, 2025-12-25)"
   xmlns:inkscape="http://www.inkscape.org/namespaces/inkscape"
   xmlns:sodipodi="http://sodipodi.sourceforge.net/DTD/sodipodi-0.dtd"
   xmlns="http://www.w3.org/2000/svg"
   xmlns:svg="http://www.w3.org/2000/svg"><defs
   id="defs1">



</defs><sodipodi:namedview
   id="namedview1"
   pagecolor="#ffffff"
   bordercolor="#000000"
   borderopacity="0.25"
   inkscape:showpageshadow="2"
   inkscape:pageopacity="0.0"
   inkscape:pagecheckerboard="0"
   inkscape:deskcolor="#d1d1d1"
   inkscape:zoom="8.8"
   inkscape:cx="54.715909"
   inkscape:cy="53.75"
   inkscape:window-width="1973"
   inkscape:window-height="1489"
   inkscape:window-x="3165"
   inkscape:window-y="588"
   inkscape:window-maximized="0"
   inkscape:current-layer="Layer_1" />

<g
   id="g1"><path
     d="m 50,17.692057 c 8.919271,0 17.000325,3.613281 22.843425,9.464518 5.843097,5.8431 9.464516,13.924155 9.464516,22.843425 0,8.919271 -3.613282,17.000325 -9.464516,22.843425 -5.8431,5.843097 -13.924154,9.464516 -22.843425,9.464516 -8.91927,0 -17.000325,-3.613282 -22.843425,-9.464516 C 21.313476,67.000325 17.692057,58.919271 17.692057,50 c 0,-8.91927 3.613281,-17.000325 9.464518,-22.843425 C 32.999675,21.313476 41.08073,17.692057 50,17.692057 Z M 50,0 C 63.810222,0 76.310219,5.5989585 85.351565,14.648438 94.401038,23.697917 100,36.197917 100,50 100,63.810222 94.401038,76.310219 85.351565,85.351565 76.302081,94.401038 63.802084,100 50,100 36.189779,100 23.689779,94.401038 14.648438,85.351565 5.5989585,76.310219 0,63.810222 0,50 0,36.189779 5.5989585,23.689779 14.648438,14.648438 23.689779,5.5989585 36.189779,0 50,0 Z M 76.066081,23.933919 C 69.392904,17.260743 60.180664,13.134766 50,13.134766 c -10.180664,0 -19.392904,4.125977 -26.066081,10.799153 C 17.260743,30.607096 13.134766,39.819336 13.134766,50 c 0,10.180664 4.125977,19.392904 10.799153,26.066081 C 30.607096,82.739262 39.819336,86.865234 50,86.865234 c 10.180664,0 19.392904,-4.125972 26.066081,-10.799153 C 82.739262,69.392904 86.865234,60.180664 86.865234,50 c 0,-10.180664 -4.125972,-19.392904 -10.799153,-26.066081 z M 53.263346,46.199544 C 52.433269,45.369466 51.285808,44.856771 50,44.856771 c -1.277669,0 -2.433268,0.512695 -3.263346,1.342773 l -0.0081,0.0081 c -0.830078,0.830078 -1.342773,1.97754 -1.342773,3.263347 0,1.277669 0.512695,2.433268 1.342773,3.263346 l 0.0081,0.0081 C 47.566732,53.572515 48.714192,54.08521 50,54.08521 c 1.27767,0 2.433269,-0.512695 3.263346,-1.342773 l 0.0081,-0.0081 c 0.830077,-0.830078 1.342773,-1.985677 1.342773,-3.263346 -0.0081,-1.285807 -0.520834,-2.433269 -1.350911,-3.271485 z m -0.317382,-4.866536 c 1.196289,0.439453 2.278646,1.131185 3.16569,2.01823 v 0 0 c 0.301107,0.301106 0.585937,0.626627 0.838216,0.976562 l 0.08138,-0.02441 17.10612,-4.581706 c -1.326496,-3.116862 -3.238931,-5.924479 -5.598958,-8.276367 -4.093424,-4.093425 -9.53776,-6.844076 -15.600585,-7.519532 v 17.187501 c 0.01628,0.07324 0.01628,0.146484 0.0081,0.219726 z m 5.680338,8.821614 c -0.113932,1.407878 -0.561523,2.726237 -1.277669,3.873699 0.04069,0.04883 0.07324,0.105794 0.105794,0.16276 l 9.822592,15.568033 c 0.439452,-0.382486 0.86263,-0.781249 1.277668,-1.196289 4.744467,-4.744465 7.682291,-11.311848 7.682291,-18.554687 0,-1.521809 -0.130207,-3.011068 -0.382486,-4.467773 z M 52.5472,57.739258 c -0.805663,0.252279 -1.660155,0.382487 -2.5472,0.382487 -0.797525,0 -1.570638,-0.105794 -2.311198,-0.309245 l -9.586588,15.58431 c 3.572591,1.822917 7.617187,2.848306 11.897786,2.848306 4.443359,0 8.626302,-1.10677 12.29655,-3.051757 z m -9.765624,-3.507487 c -0.748698,-1.123047 -1.236979,-2.433268 -1.383464,-3.833007 h -0.0081 L 24.226889,45.02767 C 23.917643,46.638997 23.754883,48.299154 23.754883,50 c 0,7.242839 2.937825,13.810222 7.682292,18.554687 0.512695,0.512696 1.049805,1.009116 1.611328,1.481121 l 9.602865,-15.616863 c 0.04883,-0.05696 0.08952,-0.12207 0.130208,-0.187174 z m 0.12207,-9.700521 c 0.292968,-0.415039 0.61849,-0.813802 0.9847,-1.171874 v 0 0 c 0.854492,-0.846355 1.879884,-1.521811 3.019206,-1.961264 -0.0081,-0.08952 -0.01628,-0.187174 -0.01628,-0.276692 V 23.950196 c -6.005859,0.708007 -11.393229,3.442382 -15.445963,7.503255 -2.237956,2.237956 -4.077149,4.882812 -5.395508,7.812499 z"
     id="path1"
     style="stroke-width:0.813802" /></g>

</svg>
