<?xml version="1.0" encoding="UTF-8" standalone="no"?>
<!-- Uploaded to: SVG Repo, www.svgrepo.com, Generator: SVG Repo Mixer Tools -->

<svg
   width="100"
   height="100"
   viewBox="0 0 100 100"
   fill="none"
   version="1.1"
   id="svg1"
   sodipodi:docname="Wheel_white.svg"
   inkscape:version="1.4.3 (0d15f75, 2025-12-25)"
   xmlns:inkscape="http://www.inkscape.org/namespaces/inkscape"
   xmlns:sodipodi="http://sodipodi.sourceforge.net/DTD/sodipodi-0.dtd"
   xmlns="http://www.w3.org/2000/svg"
   xmlns:svg="http://www.w3.org/2000/svg">
  <defs
     id="defs1" />
  <sodipodi:namedview
     id="namedview1"
     pagecolor="#ffffff"
     bordercolor="#000000"
     borderopacity="0.25"
     inkscape:showpageshadow="2"
     inkscape:pageopacity="0.0"
     inkscape:pagecheckerboard="0"
     inkscape:deskcolor="#d1d1d1"
     inkscape:zoom="6.2225397"
     inkscape:cx="92.807765"
     inkscape:cy="86.379521"
     inkscape:window-width="2243"
     inkscape:window-height="1534"
     inkscape:window-x="3259"
     inkscape:window-y="633"
     inkscape:window-maximized="0"
     inkscape:current-layer="svg1" />
  <g
     id="g1"
     transform="scale(4.6511628)">
    <path
       fill-rule="evenodd"
       clip-rule="evenodd"
       d="M 10.75,1.5 C 5.64137,1.5 1.5,5.64137 1.5,10.75 1.5,15.8586 5.64137,20 10.75,20 15.8586,20 20,15.8586 20,10.75 20,5.64137 15.8586,1.5 10.75,1.5 Z M 0,10.75 C 0,4.81294 4.81294,0 10.75,0 16.6871,0 21.5,4.81294 21.5,10.75 21.5,16.6871 16.6871,21.5 10.75,21.5 4.81294,21.5 0,16.6871 0,10.75 Z M 5.55317,10 H 8.10352 C 8.22932,9.5552 8.46426,9.1562 8.7776,8.8338 L 7.50225,6.62485 C 6.4684,7.43992 5.74837,8.63531 5.55317,10 Z M 8.8007,5.8738 10.0762,8.08314 C 10.2918,8.02884 10.5176,8 10.75,8 c 0.2324,0 0.4581,0.02883 0.6737,0.08312 L 12.6993,5.87378 C 12.0966,5.63264 11.4388,5.5 10.75,5.5 10.0612,5.5 9.4034,5.63265 8.8007,5.8738 Z m 5.197,0.75101 -1.2753,2.20889 C 13.0357,9.1562 13.2707,9.5552 13.3965,10 h 2.5503 C 15.7516,8.63529 15.0316,7.43988 13.9977,6.62481 Z M 15.9468,11.5 h -2.5503 c -0.1258,0.4449 -0.3608,0.8439 -0.6742,1.1663 l 1.2754,2.2089 c 1.0339,-0.815 1.7539,-2.0105 1.9491,-3.3752 z m -3.2476,4.1262 -1.2756,-2.2093 C 11.2081,13.4712 10.9824,13.5 10.75,13.5 c -0.2324,0 -0.4581,-0.0288 -0.6737,-0.0831 L 8.8007,15.6262 C 9.4034,15.8674 10.0612,16 10.75,16 c 0.6888,0 1.3465,-0.1326 1.9492,-0.3738 z M 7.50229,14.8752 8.7776,12.6663 C 8.46428,12.3438 8.22933,11.9448 8.10352,11.5 H 5.55317 c 0.1952,1.3647 0.91525,2.5601 1.94912,3.3752 z M 10.1359,11.839 C 10.1323,11.8369 10.1287,11.8347 10.125,11.8326 10.1215,11.8306 10.118,11.8286 10.1145,11.8266 9.7467,11.609 9.5,11.2083 9.5,10.75 9.5,10.2934 9.7449,9.8939 10.1105,9.6758 10.1153,9.6731 10.1202,9.6704 10.125,9.6676 10.1301,9.6646 10.1351,9.6616 10.1402,9.6586 10.3205,9.5576 10.5285,9.5 10.75,9.5 c 0.2204,0 0.4275,0.0571 0.6073,0.1572 0.0058,0.0035 0.0117,0.007 0.0176,0.0105 0.0057,0.0032 0.0113,0.0064 0.0171,0.0095 C 11.7562,9.8957 12,10.2944 12,10.75 c 0,0.4595 -0.2479,0.8611 -0.6173,1.0783 -0.0026,0.0014 -0.0051,0.0029 -0.0077,0.0044 -0.0028,0.0016 -0.0056,0.0032 -0.0084,0.0049 C 11.1847,11.941 10.9742,12 10.75,12 10.5268,12 10.3173,11.9415 10.1359,11.839 Z M 4,10.75 C 4,7.02208 7.02208,4 10.75,4 c 3.7279,0 6.75,3.02208 6.75,6.75 0,3.7279 -3.0221,6.75 -6.75,6.75 C 7.02208,17.5 4,14.4779 4,10.75 Z"
       fill="#1c274c"
       id="path1" />
  </g>
</svg>
